<svg width="209" height="312" viewBox="0 0 209 312" fill="none" xmlns="http://www.w3.org/2000/svg">
<rect y="2" width="209" height="310" rx="19" fill="white"/>
<path d="M9 15.44L17.44 11H19.32V36.52L22.72 37.28V39H9.84V37.28L14.44 36.48V15.04L9.64 17.08L9 15.44ZM36.9291 10.4C40.1824 10.4 42.7557 11.76 44.6491 14.48C46.5691 17.1733 47.5291 20.68 47.5291 25C47.5291 29.2667 46.5691 32.7733 44.6491 35.52C42.7557 38.24 40.1824 39.6 36.9291 39.6C33.6757 39.6 31.0891 38.24 29.1691 35.52C27.2757 32.7733 26.3291 29.2667 26.3291 25C26.3291 20.7067 27.2757 17.2 29.1691 14.48C31.0891 11.76 33.6757 10.4 36.9291 10.4ZM36.9291 12.76C35.1957 12.76 33.8491 13.9467 32.8891 16.32C31.9291 18.6933 31.4491 21.5867 31.4491 25C31.4491 28.4133 31.9291 31.3067 32.8891 33.68C33.8491 36.0533 35.1957 37.24 36.9291 37.24C38.6624 37.24 40.0091 36.0533 40.9691 33.68C41.9291 31.3067 42.4091 28.4133 42.4091 25C42.4091 21.5867 41.9291 18.6933 40.9691 16.32C40.0091 13.9467 38.6624 12.76 36.9291 12.76Z" fill="#FF0000"/>
<path d="M200 294.56L191.56 299H189.68V273.48L186.28 272.72V271H199.16V272.72L194.56 273.52V294.96L199.36 292.92L200 294.56ZM172.071 299.6C168.818 299.6 166.244 298.24 164.351 295.52C162.431 292.827 161.471 289.32 161.471 285C161.471 280.733 162.431 277.227 164.351 274.48C166.244 271.76 168.818 270.4 172.071 270.4C175.324 270.4 177.911 271.76 179.831 274.48C181.724 277.227 182.671 280.733 182.671 285C182.671 289.293 181.724 292.8 179.831 295.52C177.911 298.24 175.324 299.6 172.071 299.6ZM172.071 297.24C173.804 297.24 175.151 296.053 176.111 293.68C177.071 291.307 177.551 288.413 177.551 285C177.551 281.587 177.071 278.693 176.111 276.32C175.151 273.947 173.804 272.76 172.071 272.76C170.338 272.76 168.991 273.947 168.031 276.32C167.071 278.693 166.591 281.587 166.591 285C166.591 288.413 167.071 291.307 168.031 293.68C168.991 296.053 170.338 297.24 172.071 297.24Z" fill="#FF0000"/>
<path d="M32 63.4273C32 69.0681 22.2041 69.964 22.2041 63.4273C22.2041 69.964 12 69.0681 12 63.4273C12 53.6222 22.2041 43 22.2041 43C22.2041 43 32 54.0307 32 63.4273Z" fill="#FF0000"/>
<path d="M176 243.573C176 237.932 185.796 237.036 185.796 243.573C185.796 237.036 196 237.932 196 243.573C196 253.378 185.796 264 185.796 264C185.796 264 176 252.969 176 243.573Z" fill="#FF0000"/>
<path d="M50 51.2309C50 41.0774 68.1224 39.4648 68.1224 51.2309C68.1224 39.4648 87 41.0774 87 51.2309C87 68.8801 68.1224 88 68.1224 88C68.1224 88 50 68.1447 50 51.2309Z" fill="#FF0000"/>
<path d="M50 115.231C50 105.077 68.1224 103.465 68.1224 115.231C68.1224 103.465 87 105.077 87 115.231C87 132.88 68.1224 152 68.1224 152C68.1224 152 50 132.145 50 115.231Z" fill="#FF0000"/>
<path d="M86 73.2309C86 63.0774 103.633 61.4648 103.633 73.2309C103.633 61.4648 122 63.0774 122 73.2309C122 90.8801 103.633 110 103.633 110C103.633 110 86 90.1447 86 73.2309Z" fill="#FF0000"/>
<path d="M121 115.231C121 105.077 139.122 103.465 139.122 115.231C139.122 103.465 158 105.077 158 115.231C158 132.88 139.122 152 139.122 152C139.122 152 121 132.145 121 115.231Z" fill="#FF0000"/>
<path d="M87 205.769C87 215.923 68.8776 217.535 68.8776 205.769C68.8776 217.535 50 215.923 50 205.769C50 188.12 68.8776 169 68.8776 169C68.8776 169 87 188.855 87 205.769Z" fill="#FF0000"/>
<path d="M122 239.769C122 249.923 104.367 251.535 104.367 239.769C104.367 251.535 86 249.923 86 239.769C86 222.12 104.367 203 104.367 203C104.367 203 122 222.855 122 239.769Z" fill="#FF0000"/>
<path d="M158 205.769C158 215.923 139.878 217.535 139.878 205.769C139.878 217.535 121 215.923 121 205.769C121 188.12 139.878 169 139.878 169C139.878 169 158 188.855 158 205.769Z" fill="#FF0000"/>
<path d="M87 269.769C87 279.923 68.8776 281.535 68.8776 269.769C68.8776 281.535 50 279.923 50 269.769C50 252.12 68.8776 233 68.8776 233C68.8776 233 87 252.855 87 269.769Z" fill="#FF0000"/>
<path d="M158 269.769C158 279.923 139.878 281.535 139.878 269.769C139.878 281.535 121 279.923 121 269.769C121 252.12 139.878 233 139.878 233C139.878 233 158 252.855 158 269.769Z" fill="#FF0000"/>
<path d="M121 51.2309C121 41.0774 139.122 39.4648 139.122 51.2309C139.122 39.4648 158 41.0774 158 51.2309C158 68.8801 139.122 88 139.122 88C139.122 88 121 68.1447 121 51.2309Z" fill="#FF0000"/>
</svg>
