<svg width="209" height="312" viewBox="0 0 209 312" fill="none" xmlns="http://www.w3.org/2000/svg">
<rect y="2" width="209" height="310" rx="19" fill="white"/>
<path d="M8.32 33.48V31.76L23.72 11H25.68V30.68H28.84V33.48H25.68V39.6H21.4V33.48H8.32ZM12.64 30.68H21.4V19L12.64 30.68Z" fill="#FF0000"/>
<path d="M200.68 276.52V278.24L185.28 299H183.32V279.32H180.16V276.52H183.32V270.4H187.6V276.52H200.68ZM196.36 279.32H187.6V291L196.36 279.32Z" fill="#FF0000"/>
<path d="M32 63.4273C32 69.0681 22.2041 69.964 22.2041 63.4273C22.2041 69.964 12 69.0681 12 63.4273C12 53.6222 22.2041 43 22.2041 43C22.2041 43 32 54.0307 32 63.4273Z" fill="#FF0000"/>
<path d="M176 243.573C176 237.932 185.796 237.036 185.796 243.573C185.796 237.036 196 237.932 196 243.573C196 253.378 185.796 264 185.796 264C185.796 264 176 252.969 176 243.573Z" fill="#FF0000"/>
<path d="M38 62.06C38 49.6502 60.0408 47.6793 60.0408 62.06C60.0408 47.6793 83 49.6502 83 62.06C83 83.6312 60.0408 107 60.0408 107C60.0408 107 38 82.7324 38 62.06Z" fill="#FF0000"/>
<path d="M83 252.94C83 265.35 60.9592 267.321 60.9592 252.94C60.9592 267.321 38 265.35 38 252.94C38 231.369 60.9592 208 60.9592 208C60.9592 208 83 232.268 83 252.94Z" fill="#FF0000"/>
<path d="M171 252.94C171 265.35 148.959 267.321 148.959 252.94C148.959 267.321 126 265.35 126 252.94C126 231.369 148.959 208 148.959 208C148.959 208 171 232.268 171 252.94Z" fill="#FF0000"/>
<path d="M126 62.06C126 49.6502 148.041 47.6793 148.041 62.06C148.041 47.6793 171 49.6502 171 62.06C171 83.6312 148.041 107 148.041 107C148.041 107 126 82.7324 126 62.06Z" fill="#FF0000"/>
</svg>
