<svg width="209" height="312" viewBox="0 0 209 312" fill="none" xmlns="http://www.w3.org/2000/svg">
<rect y="2" width="209" height="310" rx="19" fill="white"/>
<path d="M10.64 32.24C10.64 29.3333 12.5467 26.7067 16.36 24.36C14.7867 23.2933 13.56 22.2 12.68 21.08C11.8 19.9333 11.36 18.5733 11.36 17C11.36 14.92 12.1867 13.3067 13.84 12.16C15.52 10.9867 17.5067 10.4 19.8 10.4C22.0667 10.4 24 10.96 25.6 12.08C27.2267 13.2 28.04 14.76 28.04 16.76C28.04 19.2667 26.6 21.5467 23.72 23.6C25.4 24.6933 26.7067 25.88 27.64 27.16C28.6 28.4133 29.08 29.96 29.08 31.8C29.08 34.2 28.1333 36.1067 26.24 37.52C24.3467 38.9067 22.1733 39.6 19.72 39.6C17.32 39.6 15.2 38.9467 13.36 37.64C11.5467 36.3067 10.64 34.5067 10.64 32.24ZM14.68 32.24C14.68 33.84 15.1733 35.0933 16.16 36C17.1467 36.88 18.32 37.32 19.68 37.32C20.9867 37.32 22.1067 36.8933 23.04 36.04C24 35.1867 24.48 34.0133 24.48 32.52C24.48 31.7733 24.3333 31.0933 24.04 30.48C23.7467 29.84 23.2533 29.2267 22.56 28.64C21.8667 28.0267 21.2533 27.5467 20.72 27.2C20.2133 26.8267 19.4533 26.32 18.44 25.68C17.16 26.64 16.2133 27.72 15.6 28.92C14.9867 30.0933 14.68 31.2 14.68 32.24ZM15.92 16.4C15.92 16.9067 16.04 17.4133 16.28 17.92C16.52 18.4 16.7733 18.8133 17.04 19.16C17.3067 19.48 17.7467 19.8667 18.36 20.32C19 20.7733 19.4933 21.1067 19.84 21.32L21.64 22.36C22.44 21.5867 23.04 20.7067 23.44 19.72C23.84 18.7333 24.04 17.8533 24.04 17.08C24.04 15.72 23.6267 14.6667 22.8 13.92C21.9733 13.1467 20.96 12.76 19.76 12.76C18.72 12.76 17.8133 13.0933 17.04 13.76C16.2933 14.4 15.92 15.28 15.92 16.4Z" fill="#FF0000"/>
<path d="M198.36 277.76C198.36 280.667 196.453 283.293 192.64 285.64C194.213 286.707 195.44 287.8 196.32 288.92C197.2 290.067 197.64 291.427 197.64 293C197.64 295.08 196.813 296.693 195.16 297.84C193.48 299.013 191.493 299.6 189.2 299.6C186.933 299.6 185 299.04 183.4 297.92C181.773 296.8 180.96 295.24 180.96 293.24C180.96 290.733 182.4 288.453 185.28 286.4C183.6 285.307 182.293 284.12 181.36 282.84C180.4 281.587 179.92 280.04 179.92 278.2C179.92 275.8 180.867 273.893 182.76 272.48C184.653 271.093 186.827 270.4 189.28 270.4C191.68 270.4 193.8 271.053 195.64 272.36C197.453 273.693 198.36 275.493 198.36 277.76ZM194.32 277.76C194.32 276.16 193.827 274.907 192.84 274C191.853 273.12 190.68 272.68 189.32 272.68C188.013 272.68 186.893 273.107 185.96 273.96C185 274.813 184.52 275.987 184.52 277.48C184.52 278.227 184.667 278.907 184.96 279.52C185.253 280.16 185.747 280.773 186.44 281.36C187.133 281.973 187.747 282.453 188.28 282.8C188.787 283.173 189.547 283.68 190.56 284.32C191.84 283.36 192.787 282.28 193.4 281.08C194.013 279.907 194.32 278.8 194.32 277.76ZM193.08 293.6C193.08 293.093 192.96 292.587 192.72 292.08C192.48 291.6 192.227 291.187 191.96 290.84C191.693 290.52 191.253 290.133 190.64 289.68C190 289.227 189.507 288.893 189.16 288.68L187.36 287.64C186.56 288.413 185.96 289.293 185.56 290.28C185.16 291.267 184.96 292.147 184.96 292.92C184.96 294.28 185.373 295.333 186.2 296.08C187.027 296.853 188.04 297.24 189.24 297.24C190.28 297.24 191.187 296.907 191.96 296.24C192.707 295.6 193.08 294.72 193.08 293.6Z" fill="#FF0000"/>
<path d="M32 63.4273C32 69.0681 22.2041 69.964 22.2041 63.4273C22.2041 69.964 12 69.0681 12 63.4273C12 53.6222 22.2041 43 22.2041 43C22.2041 43 32 54.0307 32 63.4273Z" fill="#FF0000"/>
<path d="M176 243.573C176 237.932 185.796 237.036 185.796 243.573C185.796 237.036 196 237.932 196 243.573C196 253.378 185.796 264 185.796 264C185.796 264 176 252.969 176 243.573Z" fill="#FF0000"/>
<path d="M38 62.06C38 49.6502 60.0408 47.6793 60.0408 62.06C60.0408 47.6793 83 49.6502 83 62.06C83 83.6312 60.0408 107 60.0408 107C60.0408 107 38 82.7324 38 62.06Z" fill="#FF0000"/>
<path d="M38 140.06C38 127.65 60.0408 125.679 60.0408 140.06C60.0408 125.679 83 127.65 83 140.06C83 161.631 60.0408 185 60.0408 185C60.0408 185 38 160.732 38 140.06Z" fill="#FF0000"/>
<path d="M82 90.06C82 77.6502 104.041 75.6793 104.041 90.06C104.041 75.6793 127 77.6502 127 90.06C127 111.631 104.041 135 104.041 135C104.041 135 82 110.732 82 90.06Z" fill="#FF0000"/>
<path d="M126 140.06C126 127.65 148.041 125.679 148.041 140.06C148.041 125.679 171 127.65 171 140.06C171 161.631 148.041 185 148.041 185C148.041 185 126 160.732 126 140.06Z" fill="#FF0000"/>
<path d="M83 252.94C83 265.35 60.9592 267.321 60.9592 252.94C60.9592 267.321 38 265.35 38 252.94C38 231.369 60.9592 208 60.9592 208C60.9592 208 83 232.268 83 252.94Z" fill="#FF0000"/>
<path d="M127 224.94C127 237.35 104.959 239.321 104.959 224.94C104.959 239.321 82 237.35 82 224.94C82 203.369 104.959 180 104.959 180C104.959 180 127 204.268 127 224.94Z" fill="#FF0000"/>
<path d="M171 252.94C171 265.35 148.959 267.321 148.959 252.94C148.959 267.321 126 265.35 126 252.94C126 231.369 148.959 208 148.959 208C148.959 208 171 232.268 171 252.94Z" fill="#FF0000"/>
<path d="M126 62.06C126 49.6502 148.041 47.6793 148.041 62.06C148.041 47.6793 171 49.6502 171 62.06C171 83.6312 148.041 107 148.041 107C148.041 107 126 82.7324 126 62.06Z" fill="#FF0000"/>
</svg>
