<svg width="209" height="312" viewBox="0 0 209 312" fill="none" xmlns="http://www.w3.org/2000/svg">
<rect y="2" width="209" height="310" rx="19" fill="white"/>
<path d="M9.16 39V36.6L12.6 32.92C13.4 32.04 14.3333 30.92 15.4 29.56C16.4667 28.2 17.4 26.8933 18.2 25.64C19 24.36 19.68 23 20.24 21.56C20.8267 20.12 21.12 18.8133 21.12 17.64C21.12 16.04 20.72 14.76 19.92 13.8C19.1467 12.84 18.0933 12.36 16.76 12.36L12.04 16.68C10.6 15.6133 9.84 14.1867 9.76 12.4C12.3467 11.0667 15.1733 10.4 18.24 10.4C20.5333 10.4 22.4267 10.96 23.92 12.08C25.44 13.1733 26.2 14.8 26.2 16.96C26.2 18.5067 25.8267 20.1333 25.08 21.84C24.36 23.52 23.32 25.2 21.96 26.88C20.6267 28.56 19.3867 30 18.24 31.2C17.12 32.4 15.8 33.7067 14.28 35.12H23.84L26 30.8H27.76L26.64 39H9.16Z" fill="#FF0000"/>
<path d="M199.84 271V273.4L196.4 277.08C195.6 277.96 194.667 279.08 193.6 280.44C192.533 281.8 191.6 283.107 190.8 284.36C190 285.64 189.32 287 188.76 288.44C188.173 289.88 187.88 291.187 187.88 292.36C187.88 293.96 188.28 295.24 189.08 296.2C189.853 297.16 190.907 297.64 192.24 297.64L196.96 293.32C198.4 294.387 199.16 295.813 199.24 297.6C196.653 298.933 193.827 299.6 190.76 299.6C188.467 299.6 186.573 299.04 185.08 297.92C183.56 296.827 182.8 295.2 182.8 293.04C182.8 291.493 183.173 289.867 183.92 288.16C184.64 286.48 185.68 284.8 187.04 283.12C188.373 281.44 189.613 280 190.76 278.8C191.88 277.6 193.2 276.293 194.72 274.88H185.16L183 279.2H181.24L182.36 271H199.84Z" fill="#FF0000"/>
<path d="M32 63.4273C32 69.0681 22.2041 69.964 22.2041 63.4273C22.2041 69.964 12 69.0681 12 63.4273C12 53.6222 22.2041 43 22.2041 43C22.2041 43 32 54.0307 32 63.4273Z" fill="#FF0000"/>
<path d="M176 243.573C176 237.932 185.796 237.036 185.796 243.573C185.796 237.036 196 237.932 196 243.573C196 253.378 185.796 264 185.796 264C185.796 264 176 252.969 176 243.573Z" fill="#FF0000"/>
<path d="M82 68.06C82 55.6502 104.041 53.6793 104.041 68.06C104.041 53.6793 127 55.6502 127 68.06C127 89.6312 104.041 113 104.041 113C104.041 113 82 88.7324 82 68.06Z" fill="#FF0000"/>
<path d="M127 246.94C127 259.35 104.959 261.321 104.959 246.94C104.959 261.321 82 259.35 82 246.94C82 225.369 104.959 202 104.959 202C104.959 202 127 226.268 127 246.94Z" fill="#FF0000"/>
</svg>
