<svg width="209" height="312" viewBox="0 0 209 312" fill="none" xmlns="http://www.w3.org/2000/svg">
<rect y="2" width="209" height="310" rx="19" fill="white"/>
<path d="M9.36 19.6C9.36 16.9867 10.16 14.8 11.76 13.04C13.36 11.28 15.6267 10.4 18.56 10.4C21.8133 10.4 24.3067 11.56 26.04 13.88C27.8 16.1733 28.68 19.2133 28.68 23C28.68 27.72 27.2133 31.6667 24.28 34.84C21.3733 38.0133 17.3867 39.6 12.32 39.6V37.28C15.52 37.2533 18.1067 36.2 20.08 34.12C22.08 32.0133 23.3467 29.3067 23.88 26C22.0933 27.6267 20.0267 28.44 17.68 28.44C15.04 28.44 12.9867 27.6133 11.52 25.96C10.08 24.28 9.36 22.16 9.36 19.6ZM14.32 18.92C14.32 20.76 14.7733 22.28 15.68 23.48C16.5867 24.68 17.8533 25.28 19.48 25.28C21.2133 25.28 22.7733 24.7733 24.16 23.76V22.64C24.16 19.76 23.6933 17.3733 22.76 15.48C21.8267 13.56 20.5067 12.6 18.8 12.6C17.4667 12.6 16.3867 13.24 15.56 14.52C14.7333 15.7733 14.32 17.24 14.32 18.92Z" fill="#FF0000"/>
<path d="M199.64 290.4C199.64 293.013 198.84 295.2 197.24 296.96C195.64 298.72 193.373 299.6 190.44 299.6C187.187 299.6 184.693 298.44 182.96 296.12C181.2 293.827 180.32 290.787 180.32 287C180.32 282.28 181.787 278.333 184.72 275.16C187.627 271.987 191.613 270.4 196.68 270.4V272.72C193.48 272.747 190.893 273.8 188.92 275.88C186.92 277.987 185.653 280.693 185.12 284C186.907 282.373 188.973 281.56 191.32 281.56C193.96 281.56 196.013 282.387 197.48 284.04C198.92 285.72 199.64 287.84 199.64 290.4ZM194.68 291.08C194.68 289.24 194.227 287.72 193.32 286.52C192.413 285.32 191.147 284.72 189.52 284.72C187.787 284.72 186.227 285.227 184.84 286.24V287.36C184.84 290.24 185.307 292.627 186.24 294.52C187.173 296.44 188.493 297.4 190.2 297.4C191.533 297.4 192.613 296.76 193.44 295.48C194.267 294.227 194.68 292.76 194.68 291.08Z" fill="#FF0000"/>
<path d="M32 63.4273C32 69.0681 22.2041 69.964 22.2041 63.4273C22.2041 69.964 12 69.0681 12 63.4273C12 53.6222 22.2041 43 22.2041 43C22.2041 43 32 54.0307 32 63.4273Z" fill="#FF0000"/>
<path d="M176 243.573C176 237.932 185.796 237.036 185.796 243.573C185.796 237.036 196 237.932 196 243.573C196 253.378 185.796 264 185.796 264C185.796 264 176 252.969 176 243.573Z" fill="#FF0000"/>
<path d="M47 40.7797C47 29.9493 66.102 28.2292 66.102 40.7797C66.102 28.2292 86 29.9493 86 40.7797C86 59.6054 66.102 80 66.102 80C66.102 80 47 58.821 47 40.7797Z" fill="#FF0000"/>
<path d="M47 108.78C47 97.9493 66.102 96.2292 66.102 108.78C66.102 96.2292 86 97.9493 86 108.78C86 127.605 66.102 148 66.102 148C66.102 148 47 126.821 47 108.78Z" fill="#FF0000"/>
<path d="M85 148.78C85 137.949 104.102 136.229 104.102 148.78C104.102 136.229 124 137.949 124 148.78C124 167.605 104.102 188 104.102 188C104.102 188 85 166.821 85 148.78Z" fill="#FF0000"/>
<path d="M123 108.78C123 97.9493 142.102 96.2292 142.102 108.78C142.102 96.2292 162 97.9493 162 108.78C162 127.605 142.102 148 142.102 148C142.102 148 123 126.821 123 108.78Z" fill="#FF0000"/>
<path d="M86 206.22C86 217.051 66.898 218.771 66.898 206.22C66.898 218.771 47 217.051 47 206.22C47 187.395 66.898 167 66.898 167C66.898 167 86 188.179 86 206.22Z" fill="#FF0000"/>
<path d="M162 206.22C162 217.051 142.898 218.771 142.898 206.22C142.898 218.771 123 217.051 123 206.22C123 187.395 142.898 167 142.898 167C142.898 167 162 188.179 162 206.22Z" fill="#FF0000"/>
<path d="M86 274.22C86 285.051 66.898 286.771 66.898 274.22C66.898 286.771 47 285.051 47 274.22C47 255.395 66.898 235 66.898 235C66.898 235 86 256.179 86 274.22Z" fill="#FF0000"/>
<path d="M162 274.22C162 285.051 142.898 286.771 142.898 274.22C142.898 286.771 123 285.051 123 274.22C123 255.395 142.898 235 142.898 235C142.898 235 162 256.179 162 274.22Z" fill="#FF0000"/>
<path d="M123 40.7797C123 29.9493 142.102 28.2292 142.102 40.7797C142.102 28.2292 162 29.9493 162 40.7797C162 59.6054 142.102 80 142.102 80C142.102 80 123 58.821 123 40.7797Z" fill="#FF0000"/>
</svg>
