<svg width="209" height="312" viewBox="0 0 209 312" fill="none" xmlns="http://www.w3.org/2000/svg">
<rect y="2" width="209" height="310" rx="19" fill="white"/>
<path d="M9 19.2L10.12 11H27V12.76C24.3867 16.76 22.2667 21.0267 20.64 25.56C19.0133 30.0933 17.9733 34.5733 17.52 39H12.72C13.2 35.1867 14.44 30.9733 16.44 26.36C18.4667 21.72 20.5067 17.8933 22.56 14.88H12.8L10.76 19.2H9Z" fill="#FF0000"/>
<path d="M200 290.8L198.88 299H182V297.24C184.613 293.24 186.733 288.973 188.36 284.44C189.987 279.907 191.027 275.427 191.48 271H196.28C195.8 274.813 194.56 279.027 192.56 283.64C190.533 288.28 188.493 292.107 186.44 295.12H196.2L198.24 290.8H200Z" fill="#FF0000"/>
<path d="M32 63.4273C32 69.0681 22.2041 69.964 22.2041 63.4273C22.2041 69.964 12 69.0681 12 63.4273C12 53.6222 22.2041 43 22.2041 43C22.2041 43 32 54.0307 32 63.4273Z" fill="#FF0000"/>
<path d="M176 243.573C176 237.932 185.796 237.036 185.796 243.573C185.796 237.036 196 237.932 196 243.573C196 253.378 185.796 264 185.796 264C185.796 264 176 252.969 176 243.573Z" fill="#FF0000"/>
<path d="M38 62.06C38 49.6502 60.0408 47.6793 60.0408 62.06C60.0408 47.6793 83 49.6502 83 62.06C83 83.6312 60.0408 107 60.0408 107C60.0408 107 38 82.7324 38 62.06Z" fill="#FF0000"/>
<path d="M38 140.06C38 127.65 60.0408 125.679 60.0408 140.06C60.0408 125.679 83 127.65 83 140.06C83 161.631 60.0408 185 60.0408 185C60.0408 185 38 160.732 38 140.06Z" fill="#FF0000"/>
<path d="M82 90.06C82 77.6502 104.041 75.6793 104.041 90.06C104.041 75.6793 127 77.6502 127 90.06C127 111.631 104.041 135 104.041 135C104.041 135 82 110.732 82 90.06Z" fill="#FF0000"/>
<path d="M126 140.06C126 127.65 148.041 125.679 148.041 140.06C148.041 125.679 171 127.65 171 140.06C171 161.631 148.041 185 148.041 185C148.041 185 126 160.732 126 140.06Z" fill="#FF0000"/>
<path d="M83 252.94C83 265.35 60.9592 267.321 60.9592 252.94C60.9592 267.321 38 265.35 38 252.94C38 231.369 60.9592 208 60.9592 208C60.9592 208 83 232.268 83 252.94Z" fill="#FF0000"/>
<path d="M171 252.94C171 265.35 148.959 267.321 148.959 252.94C148.959 267.321 126 265.35 126 252.94C126 231.369 148.959 208 148.959 208C148.959 208 171 232.268 171 252.94Z" fill="#FF0000"/>
<path d="M126 62.06C126 49.6502 148.041 47.6793 148.041 62.06C148.041 47.6793 171 49.6502 171 62.06C171 83.6312 148.041 107 148.041 107C148.041 107 126 82.7324 126 62.06Z" fill="#FF0000"/>
</svg>
