<svg width="209" height="312" viewBox="0 0 209 312" fill="none" xmlns="http://www.w3.org/2000/svg">
<rect y="2" width="209" height="310" rx="19" fill="white"/>
<path d="M10.08 27C10.08 22.28 11.5467 18.3333 14.48 15.16C17.4133 11.9867 21.4 10.4 26.44 10.4L26.4 12.72C23.2267 12.7467 20.64 13.8133 18.64 15.92C16.6667 18 15.4133 20.6933 14.88 24C16.6667 22.3733 18.7333 21.56 21.08 21.56C23.72 21.56 25.76 22.4 27.2 24.08C28.6667 25.76 29.4 27.88 29.4 30.44C29.4 33.0267 28.6 35.2 27 36.96C25.4 38.72 23.1333 39.6 20.2 39.6C16.9467 39.6 14.44 38.4533 12.68 36.16C10.9467 33.84 10.08 30.7867 10.08 27ZM14.6 27.36C14.6 30.24 15.0667 32.64 16 34.56C16.9333 36.4533 18.2533 37.4 19.96 37.4C21.2933 37.4 22.3733 36.7733 23.2 35.52C24.0267 34.24 24.44 32.7733 24.44 31.12C24.44 29.2533 23.9867 27.72 23.08 26.52C22.1733 25.32 20.9067 24.72 19.28 24.72C17.6 24.72 16.04 25.24 14.6 26.28V27.36Z" fill="#FF0000"/>
<path d="M198.92 283C198.92 287.72 197.453 291.667 194.52 294.84C191.587 298.013 187.6 299.6 182.56 299.6L182.6 297.28C185.773 297.253 188.36 296.187 190.36 294.08C192.333 292 193.587 289.307 194.12 286C192.333 287.627 190.267 288.44 187.92 288.44C185.28 288.44 183.24 287.6 181.8 285.92C180.333 284.24 179.6 282.12 179.6 279.56C179.6 276.973 180.4 274.8 182 273.04C183.6 271.28 185.867 270.4 188.8 270.4C192.053 270.4 194.56 271.547 196.32 273.84C198.053 276.16 198.92 279.213 198.92 283ZM194.4 282.64C194.4 279.76 193.933 277.36 193 275.44C192.067 273.547 190.747 272.6 189.04 272.6C187.707 272.6 186.627 273.227 185.8 274.48C184.973 275.76 184.56 277.227 184.56 278.88C184.56 280.747 185.013 282.28 185.92 283.48C186.827 284.68 188.093 285.28 189.72 285.28C191.4 285.28 192.96 284.76 194.4 283.72V282.64Z" fill="#FF0000"/>
<path d="M32 63.4273C32 69.0681 22.2041 69.964 22.2041 63.4273C22.2041 69.964 12 69.0681 12 63.4273C12 53.6222 22.2041 43 22.2041 43C22.2041 43 32 54.0307 32 63.4273Z" fill="#FF0000"/>
<path d="M176 243.573C176 237.932 185.796 237.036 185.796 243.573C185.796 237.036 196 237.932 196 243.573C196 253.378 185.796 264 185.796 264C185.796 264 176 252.969 176 243.573Z" fill="#FF0000"/>
<path d="M38 62.06C38 49.6502 60.0408 47.6793 60.0408 62.06C60.0408 47.6793 83 49.6502 83 62.06C83 83.6312 60.0408 107 60.0408 107C60.0408 107 38 82.7324 38 62.06Z" fill="#FF0000"/>
<path d="M38 140.06C38 127.65 60.0408 125.679 60.0408 140.06C60.0408 125.679 83 127.65 83 140.06C83 161.631 60.0408 185 60.0408 185C60.0408 185 38 160.732 38 140.06Z" fill="#FF0000"/>
<path d="M126 140.06C126 127.65 148.041 125.679 148.041 140.06C148.041 125.679 171 127.65 171 140.06C171 161.631 148.041 185 148.041 185C148.041 185 126 160.732 126 140.06Z" fill="#FF0000"/>
<path d="M83 252.94C83 265.35 60.9592 267.321 60.9592 252.94C60.9592 267.321 38 265.35 38 252.94C38 231.369 60.9592 208 60.9592 208C60.9592 208 83 232.268 83 252.94Z" fill="#FF0000"/>
<path d="M171 252.94C171 265.35 148.959 267.321 148.959 252.94C148.959 267.321 126 265.35 126 252.94C126 231.369 148.959 208 148.959 208C148.959 208 171 232.268 171 252.94Z" fill="#FF0000"/>
<path d="M126 62.06C126 49.6502 148.041 47.6793 148.041 62.06C148.041 47.6793 171 49.6502 171 62.06C171 83.6312 148.041 107 148.041 107C148.041 107 126 82.7324 126 62.06Z" fill="#FF0000"/>
</svg>
