<svg width="209" height="312" viewBox="0 0 209 312" fill="none" xmlns="http://www.w3.org/2000/svg">
<rect y="2" width="209" height="310" rx="19" fill="white"/>
<path d="M10.08 27C10.08 22.28 11.5467 18.3333 14.48 15.16C17.4133 11.9867 21.4 10.4 26.44 10.4L26.4 12.72C23.2267 12.7467 20.64 13.8133 18.64 15.92C16.6667 18 15.4133 20.6933 14.88 24C16.6667 22.3733 18.7333 21.56 21.08 21.56C23.72 21.56 25.76 22.4 27.2 24.08C28.6667 25.76 29.4 27.88 29.4 30.44C29.4 33.0267 28.6 35.2 27 36.96C25.4 38.72 23.1333 39.6 20.2 39.6C16.9467 39.6 14.44 38.4533 12.68 36.16C10.9467 33.84 10.08 30.7867 10.08 27ZM14.6 27.36C14.6 30.24 15.0667 32.64 16 34.56C16.9333 36.4533 18.2533 37.4 19.96 37.4C21.2933 37.4 22.3733 36.7733 23.2 35.52C24.0267 34.24 24.44 32.7733 24.44 31.12C24.44 29.2533 23.9867 27.72 23.08 26.52C22.1733 25.32 20.9067 24.72 19.28 24.72C17.6 24.72 16.04 25.24 14.6 26.28V27.36Z" fill="black"/>
<path d="M198.92 283C198.92 287.72 197.453 291.667 194.52 294.84C191.587 298.013 187.6 299.6 182.56 299.6L182.6 297.28C185.773 297.253 188.36 296.187 190.36 294.08C192.333 292 193.587 289.307 194.12 286C192.333 287.627 190.267 288.44 187.92 288.44C185.28 288.44 183.24 287.6 181.8 285.92C180.333 284.24 179.6 282.12 179.6 279.56C179.6 276.973 180.4 274.8 182 273.04C183.6 271.28 185.867 270.4 188.8 270.4C192.053 270.4 194.56 271.547 196.32 273.84C198.053 276.16 198.92 279.213 198.92 283ZM194.4 282.64C194.4 279.76 193.933 277.36 193 275.44C192.067 273.547 190.747 272.6 189.04 272.6C187.707 272.6 186.627 273.227 185.8 274.48C184.973 275.76 184.56 277.227 184.56 278.88C184.56 280.747 185.013 282.28 185.92 283.48C186.827 284.68 188.093 285.28 189.72 285.28C191.4 285.28 192.96 284.76 194.4 283.72V282.64Z" fill="black"/>
<path d="M79 103.7C79 113.834 60.8304 109.926 60.8304 103.7C60.8304 109.926 42 113.834 42 103.7C42 93.5654 60.8304 67 60.8304 67C60.8304 67 79 93.5654 79 103.7Z" fill="black"/>
<rect x="57.5391" y="97.3398" width="5.92" height="19.98" fill="black"/>
<path d="M52.3594 117.32L61.0081 110.66L68.6394 117.32H52.3594Z" fill="black"/>
<path d="M79 168.7C79 178.834 60.8304 174.926 60.8304 168.7C60.8304 174.926 42 178.834 42 168.7C42 158.565 60.8304 132 60.8304 132C60.8304 132 79 158.565 79 168.7Z" fill="black"/>
<rect x="57.5391" y="162.34" width="5.92" height="19.98" fill="black"/>
<path d="M52.3594 182.32L61.0081 175.66L68.6394 182.32H52.3594Z" fill="black"/>
<path d="M167 168.7C167 178.834 148.83 174.926 148.83 168.7C148.83 174.926 130 178.834 130 168.7C130 158.565 148.83 132 148.83 132C148.83 132 167 158.565 167 168.7Z" fill="black"/>
<rect x="145.539" y="162.34" width="5.92" height="19.98" fill="black"/>
<path d="M140.359 182.32L149.008 175.66L156.639 182.32H140.359Z" fill="black"/>
<path d="M167 103.7C167 113.834 148.83 109.926 148.83 103.7C148.83 109.926 130 113.834 130 103.7C130 93.5654 148.83 67 148.83 67C148.83 67 167 93.5654 167 103.7Z" fill="black"/>
<rect x="145.539" y="97.3398" width="5.92" height="19.98" fill="black"/>
<path d="M140.359 117.32L149.008 110.66L156.639 117.32H140.359Z" fill="black"/>
<path d="M42 209.621C42 199.486 60.1696 203.395 60.1696 209.621C60.1696 203.395 79 199.486 79 209.621C79 219.755 60.1696 246.32 60.1696 246.32C60.1696 246.32 42 219.755 42 209.621Z" fill="black"/>
<rect x="63.4609" y="215.98" width="5.92" height="19.98" transform="rotate(-180 63.4609 215.98)" fill="black"/>
<path d="M68.6406 196L59.9919 202.66L52.3606 196H68.6406Z" fill="black"/>
<path d="M130 209.621C130 199.486 148.17 203.395 148.17 209.621C148.17 203.395 167 199.486 167 209.621C167 219.755 148.17 246.32 148.17 246.32C148.17 246.32 130 219.755 130 209.621Z" fill="black"/>
<rect x="151.461" y="215.98" width="5.92" height="19.98" transform="rotate(-180 151.461 215.98)" fill="black"/>
<path d="M156.641 196L147.992 202.66L140.361 196H156.641Z" fill="black"/>
<path d="M199 256.821C199 262.847 188.196 260.523 188.196 256.821C188.196 260.523 177 262.847 177 256.821C177 250.796 188.196 235 188.196 235C188.196 235 199 250.796 199 256.821Z" fill="black"/>
<rect x="186.238" y="253.039" width="3.52" height="11.88" fill="black"/>
<path d="M183.16 264.921L188.303 260.961L192.84 264.921H183.16Z" fill="black"/>
<path d="M11 54.0985C11 48.0726 21.8036 50.3966 21.8036 54.0985C21.8036 50.3966 33 48.0726 33 54.0985C33 60.1243 21.8036 75.9199 21.8036 75.9199C21.8036 75.9199 11 60.1243 11 54.0985Z" fill="black"/>
<rect x="23.7617" y="57.8809" width="3.52" height="11.88" transform="rotate(-180 23.7617 57.8809)" fill="black"/>
<path d="M26.8398 45.999L21.6973 49.959L17.1598 45.999H26.8398Z" fill="black"/>
</svg>
