<svg width="209" height="312" viewBox="0 0 209 312" fill="none" xmlns="http://www.w3.org/2000/svg">
<rect y="2" width="209" height="310" rx="19" fill="white"/>
<path d="M7.6 39V37.16L11.36 36.28L21.08 10.8H23.96L33.08 36.32L36.76 37.16V39H25V37.16L27.96 36.48L26.04 31.08H16.24L14.16 36.36L17.68 37.16V39H7.6ZM17.12 28.72H25.16L21.24 17.8L17.12 28.72Z" fill="black"/>
<path d="M201.4 271V272.84L197.64 273.72L187.92 299.2H185.04L175.92 273.68L172.24 272.84V271H184V272.84L181.04 273.52L182.96 278.92H192.76L194.84 273.64L191.32 272.84V271H201.4ZM191.88 281.28H183.84L187.76 292.2L191.88 281.28Z" fill="black"/>
<path d="M132 177.594C132 191.289 107.446 186.008 107.446 177.594C107.446 186.008 82 191.289 82 177.594C82 163.899 107.446 128 107.446 128C107.446 128 132 163.899 132 177.594Z" fill="black"/>
<rect x="103" y="169" width="8" height="27" fill="black"/>
<path d="M96 196L107.688 187L118 196H96Z" fill="black"/>
<path d="M199 256.821C199 262.847 188.196 260.523 188.196 256.821C188.196 260.523 177 262.847 177 256.821C177 250.796 188.196 235 188.196 235C188.196 235 199 250.796 199 256.821Z" fill="black"/>
<rect x="186.238" y="253.039" width="3.52" height="11.88" fill="black"/>
<path d="M183.16 264.921L188.303 260.961L192.84 264.921H183.16Z" fill="black"/>
<path d="M11 54.0985C11 48.0726 21.8036 50.3966 21.8036 54.0985C21.8036 50.3966 33 48.0726 33 54.0985C33 60.1243 21.8036 75.9199 21.8036 75.9199C21.8036 75.9199 11 60.1243 11 54.0985Z" fill="black"/>
<rect x="23.7617" y="57.8809" width="3.52" height="11.88" transform="rotate(-180 23.7617 57.8809)" fill="black"/>
<path d="M26.8398 45.999L21.6973 49.959L17.1598 45.999H26.8398Z" fill="black"/>
</svg>
