<svg width="209" height="312" viewBox="0 0 209 312" fill="none" xmlns="http://www.w3.org/2000/svg">
<rect y="2" width="209" height="310" rx="19" fill="white"/>
<path d="M10.64 32.24C10.64 29.3333 12.5467 26.7067 16.36 24.36C14.7867 23.2933 13.56 22.2 12.68 21.08C11.8 19.9333 11.36 18.5733 11.36 17C11.36 14.92 12.1867 13.3067 13.84 12.16C15.52 10.9867 17.5067 10.4 19.8 10.4C22.0667 10.4 24 10.96 25.6 12.08C27.2267 13.2 28.04 14.76 28.04 16.76C28.04 19.2667 26.6 21.5467 23.72 23.6C25.4 24.6933 26.7067 25.88 27.64 27.16C28.6 28.4133 29.08 29.96 29.08 31.8C29.08 34.2 28.1333 36.1067 26.24 37.52C24.3467 38.9067 22.1733 39.6 19.72 39.6C17.32 39.6 15.2 38.9467 13.36 37.64C11.5467 36.3067 10.64 34.5067 10.64 32.24ZM14.68 32.24C14.68 33.84 15.1733 35.0933 16.16 36C17.1467 36.88 18.32 37.32 19.68 37.32C20.9867 37.32 22.1067 36.8933 23.04 36.04C24 35.1867 24.48 34.0133 24.48 32.52C24.48 31.7733 24.3333 31.0933 24.04 30.48C23.7467 29.84 23.2533 29.2267 22.56 28.64C21.8667 28.0267 21.2533 27.5467 20.72 27.2C20.2133 26.8267 19.4533 26.32 18.44 25.68C17.16 26.64 16.2133 27.72 15.6 28.92C14.9867 30.0933 14.68 31.2 14.68 32.24ZM15.92 16.4C15.92 16.9067 16.04 17.4133 16.28 17.92C16.52 18.4 16.7733 18.8133 17.04 19.16C17.3067 19.48 17.7467 19.8667 18.36 20.32C19 20.7733 19.4933 21.1067 19.84 21.32L21.64 22.36C22.44 21.5867 23.04 20.7067 23.44 19.72C23.84 18.7333 24.04 17.8533 24.04 17.08C24.04 15.72 23.6267 14.6667 22.8 13.92C21.9733 13.1467 20.96 12.76 19.76 12.76C18.72 12.76 17.8133 13.0933 17.04 13.76C16.2933 14.4 15.92 15.28 15.92 16.4Z" fill="black"/>
<path d="M198.36 277.76C198.36 280.667 196.453 283.293 192.64 285.64C194.213 286.707 195.44 287.8 196.32 288.92C197.2 290.067 197.64 291.427 197.64 293C197.64 295.08 196.813 296.693 195.16 297.84C193.48 299.013 191.493 299.6 189.2 299.6C186.933 299.6 185 299.04 183.4 297.92C181.773 296.8 180.96 295.24 180.96 293.24C180.96 290.733 182.4 288.453 185.28 286.4C183.6 285.307 182.293 284.12 181.36 282.84C180.4 281.587 179.92 280.04 179.92 278.2C179.92 275.8 180.867 273.893 182.76 272.48C184.653 271.093 186.827 270.4 189.28 270.4C191.68 270.4 193.8 271.053 195.64 272.36C197.453 273.693 198.36 275.493 198.36 277.76ZM194.32 277.76C194.32 276.16 193.827 274.907 192.84 274C191.853 273.12 190.68 272.68 189.32 272.68C188.013 272.68 186.893 273.107 185.96 273.96C185 274.813 184.52 275.987 184.52 277.48C184.52 278.227 184.667 278.907 184.96 279.52C185.253 280.16 185.747 280.773 186.44 281.36C187.133 281.973 187.747 282.453 188.28 282.8C188.787 283.173 189.547 283.68 190.56 284.32C191.84 283.36 192.787 282.28 193.4 281.08C194.013 279.907 194.32 278.8 194.32 277.76ZM193.08 293.6C193.08 293.093 192.96 292.587 192.72 292.08C192.48 291.6 192.227 291.187 191.96 290.84C191.693 290.52 191.253 290.133 190.64 289.68C190 289.227 189.507 288.893 189.16 288.68L187.36 287.64C186.56 288.413 185.96 289.293 185.56 290.28C185.16 291.267 184.96 292.147 184.96 292.92C184.96 294.28 185.373 295.333 186.2 296.08C187.027 296.853 188.04 297.24 189.24 297.24C190.28 297.24 191.187 296.907 191.96 296.24C192.707 295.6 193.08 294.72 193.08 293.6Z" fill="black"/>
<path d="M79 103.7C79 113.834 60.8304 109.926 60.8304 103.7C60.8304 109.926 42 113.834 42 103.7C42 93.5654 60.8304 67 60.8304 67C60.8304 67 79 93.5654 79 103.7Z" fill="black"/>
<rect x="57.5391" y="97.3398" width="5.92" height="19.98" fill="black"/>
<path d="M52.3594 117.32L61.0081 110.66L68.6394 117.32H52.3594Z" fill="black"/>
<path d="M79 168.7C79 178.834 60.8304 174.926 60.8304 168.7C60.8304 174.926 42 178.834 42 168.7C42 158.565 60.8304 132 60.8304 132C60.8304 132 79 158.565 79 168.7Z" fill="black"/>
<rect x="57.5391" y="162.34" width="5.92" height="19.98" fill="black"/>
<path d="M52.3594 182.32L61.0081 175.66L68.6394 182.32H52.3594Z" fill="black"/>
<path d="M124 133.7C124 143.834 105.83 139.926 105.83 133.7C105.83 139.926 87 143.834 87 133.7C87 123.565 105.83 97 105.83 97C105.83 97 124 123.565 124 133.7Z" fill="black"/>
<rect x="102.539" y="127.34" width="5.92" height="19.98" fill="black"/>
<path d="M97.3594 147.32L106.008 140.66L113.639 147.32H97.3594Z" fill="black"/>
<path d="M167 168.7C167 178.834 148.83 174.926 148.83 168.7C148.83 174.926 130 178.834 130 168.7C130 158.565 148.83 132 148.83 132C148.83 132 167 158.565 167 168.7Z" fill="black"/>
<rect x="145.539" y="162.34" width="5.92" height="19.98" fill="black"/>
<path d="M140.359 182.32L149.008 175.66L156.639 182.32H140.359Z" fill="black"/>
<path d="M167 103.7C167 113.834 148.83 109.926 148.83 103.7C148.83 109.926 130 113.834 130 103.7C130 93.5654 148.83 67 148.83 67C148.83 67 167 93.5654 167 103.7Z" fill="black"/>
<rect x="145.539" y="97.3398" width="5.92" height="19.98" fill="black"/>
<path d="M140.359 117.32L149.008 110.66L156.639 117.32H140.359Z" fill="black"/>
<path d="M42 209.621C42 199.486 60.1696 203.395 60.1696 209.621C60.1696 203.395 79 199.486 79 209.621C79 219.755 60.1696 246.32 60.1696 246.32C60.1696 246.32 42 219.755 42 209.621Z" fill="black"/>
<rect x="63.4609" y="215.98" width="5.92" height="19.98" transform="rotate(-180 63.4609 215.98)" fill="black"/>
<path d="M68.6406 196L59.9919 202.66L52.3606 196H68.6406Z" fill="black"/>
<path d="M87 192.621C87 182.486 105.17 186.395 105.17 192.621C105.17 186.395 124 182.486 124 192.621C124 202.755 105.17 229.32 105.17 229.32C105.17 229.32 87 202.755 87 192.621Z" fill="black"/>
<rect x="108.461" y="198.98" width="5.92" height="19.98" transform="rotate(-180 108.461 198.98)" fill="black"/>
<path d="M113.641 179L104.992 185.66L97.3606 179H113.641Z" fill="black"/>
<path d="M130 209.621C130 199.486 148.17 203.395 148.17 209.621C148.17 203.395 167 199.486 167 209.621C167 219.755 148.17 246.32 148.17 246.32C148.17 246.32 130 219.755 130 209.621Z" fill="black"/>
<rect x="151.461" y="215.98" width="5.92" height="19.98" transform="rotate(-180 151.461 215.98)" fill="black"/>
<path d="M156.641 196L147.992 202.66L140.361 196H156.641Z" fill="black"/>
<path d="M199 256.821C199 262.847 188.196 260.523 188.196 256.821C188.196 260.523 177 262.847 177 256.821C177 250.796 188.196 235 188.196 235C188.196 235 199 250.796 199 256.821Z" fill="black"/>
<rect x="186.238" y="253.039" width="3.52" height="11.88" fill="black"/>
<path d="M183.16 264.921L188.303 260.961L192.84 264.921H183.16Z" fill="black"/>
<path d="M11 54.0985C11 48.0726 21.8036 50.3966 21.8036 54.0985C21.8036 50.3966 33 48.0726 33 54.0985C33 60.1243 21.8036 75.9199 21.8036 75.9199C21.8036 75.9199 11 60.1243 11 54.0985Z" fill="black"/>
<rect x="23.7617" y="57.8809" width="3.52" height="11.88" transform="rotate(-180 23.7617 57.8809)" fill="black"/>
<path d="M26.8398 45.999L21.6973 49.959L17.1598 45.999H26.8398Z" fill="black"/>
</svg>
