<svg width="209" height="312" viewBox="0 0 209 312" fill="none" xmlns="http://www.w3.org/2000/svg">
<rect y="2" width="209" height="310" rx="19" fill="white"/>
<path d="M9.36 19.6C9.36 16.9867 10.16 14.8 11.76 13.04C13.36 11.28 15.6267 10.4 18.56 10.4C21.8133 10.4 24.3067 11.56 26.04 13.88C27.8 16.1733 28.68 19.2133 28.68 23C28.68 27.72 27.2133 31.6667 24.28 34.84C21.3733 38.0133 17.3867 39.6 12.32 39.6V37.28C15.52 37.2533 18.1067 36.2 20.08 34.12C22.08 32.0133 23.3467 29.3067 23.88 26C22.0933 27.6267 20.0267 28.44 17.68 28.44C15.04 28.44 12.9867 27.6133 11.52 25.96C10.08 24.28 9.36 22.16 9.36 19.6ZM14.32 18.92C14.32 20.76 14.7733 22.28 15.68 23.48C16.5867 24.68 17.8533 25.28 19.48 25.28C21.2133 25.28 22.7733 24.7733 24.16 23.76V22.64C24.16 19.76 23.6933 17.3733 22.76 15.48C21.8267 13.56 20.5067 12.6 18.8 12.6C17.4667 12.6 16.3867 13.24 15.56 14.52C14.7333 15.7733 14.32 17.24 14.32 18.92Z" fill="black"/>
<path d="M199.64 290.4C199.64 293.013 198.84 295.2 197.24 296.96C195.64 298.72 193.373 299.6 190.44 299.6C187.187 299.6 184.693 298.44 182.96 296.12C181.2 293.827 180.32 290.787 180.32 287C180.32 282.28 181.787 278.333 184.72 275.16C187.627 271.987 191.613 270.4 196.68 270.4V272.72C193.48 272.747 190.893 273.8 188.92 275.88C186.92 277.987 185.653 280.693 185.12 284C186.907 282.373 188.973 281.56 191.32 281.56C193.96 281.56 196.013 282.387 197.48 284.04C198.92 285.72 199.64 287.84 199.64 290.4ZM194.68 291.08C194.68 289.24 194.227 287.72 193.32 286.52C192.413 285.32 191.147 284.72 189.52 284.72C187.787 284.72 186.227 285.227 184.84 286.24V287.36C184.84 290.24 185.307 292.627 186.24 294.52C187.173 296.44 188.493 297.4 190.2 297.4C191.533 297.4 192.613 296.76 193.44 295.48C194.267 294.227 194.68 292.76 194.68 291.08Z" fill="black"/>
<path d="M81 71.6997C81 81.8341 62.8304 77.9256 62.8304 71.6997C62.8304 77.9256 44 81.8341 44 71.6997C44 61.5654 62.8304 35 62.8304 35C62.8304 35 81 61.5654 81 71.6997Z" fill="black"/>
<rect x="59.5391" y="65.3398" width="5.92" height="19.98" fill="black"/>
<path d="M54.3594 85.3202L63.0081 78.6602L70.6394 85.3202H54.3594Z" fill="black"/>
<path d="M81 136.7C81 146.834 62.8304 142.926 62.8304 136.7C62.8304 142.926 44 146.834 44 136.7C44 126.565 62.8304 100 62.8304 100C62.8304 100 81 126.565 81 136.7Z" fill="black"/>
<rect x="59.5391" y="130.34" width="5.92" height="19.98" fill="black"/>
<path d="M54.3594 150.32L63.0081 143.66L70.6394 150.32H54.3594Z" fill="black"/>
<path d="M123 175.7C123 185.834 104.83 181.926 104.83 175.7C104.83 181.926 86 185.834 86 175.7C86 165.565 104.83 139 104.83 139C104.83 139 123 165.565 123 175.7Z" fill="black"/>
<rect x="101.539" y="169.34" width="5.92" height="19.98" fill="black"/>
<path d="M96.3594 189.32L105.008 182.66L112.639 189.32H96.3594Z" fill="black"/>
<path d="M169 136.7C169 146.834 150.83 142.926 150.83 136.7C150.83 142.926 132 146.834 132 136.7C132 126.565 150.83 100 150.83 100C150.83 100 169 126.565 169 136.7Z" fill="black"/>
<rect x="147.539" y="130.34" width="5.92" height="19.98" fill="black"/>
<path d="M142.359 150.32L151.008 143.66L158.639 150.32H142.359Z" fill="black"/>
<path d="M169 71.6997C169 81.8341 150.83 77.9256 150.83 71.6997C150.83 77.9256 132 81.8341 132 71.6997C132 61.5654 150.83 35 150.83 35C150.83 35 169 61.5654 169 71.6997Z" fill="black"/>
<rect x="147.539" y="65.3398" width="5.92" height="19.98" fill="black"/>
<path d="M142.359 85.3202L151.008 78.6602L158.639 85.3202H142.359Z" fill="black"/>
<path d="M44 177.621C44 167.486 62.1696 171.395 62.1696 177.621C62.1696 171.395 81 167.486 81 177.621C81 187.755 62.1696 214.32 62.1696 214.32C62.1696 214.32 44 187.755 44 177.621Z" fill="black"/>
<rect x="65.4609" y="183.98" width="5.92" height="19.98" transform="rotate(-180 65.4609 183.98)" fill="black"/>
<path d="M70.6406 164L61.9919 170.66L54.3606 164H70.6406Z" fill="black"/>
<path d="M44 241.621C44 231.486 62.1696 235.395 62.1696 241.621C62.1696 235.395 81 231.486 81 241.621C81 251.755 62.1696 278.32 62.1696 278.32C62.1696 278.32 44 251.755 44 241.621Z" fill="black"/>
<rect x="65.4609" y="247.98" width="5.92" height="19.98" transform="rotate(-180 65.4609 247.98)" fill="black"/>
<path d="M70.6406 228L61.9919 234.66L54.3606 228H70.6406Z" fill="black"/>
<path d="M132 177.621C132 167.486 150.17 171.395 150.17 177.621C150.17 171.395 169 167.486 169 177.621C169 187.755 150.17 214.32 150.17 214.32C150.17 214.32 132 187.755 132 177.621Z" fill="black"/>
<rect x="153.461" y="183.98" width="5.92" height="19.98" transform="rotate(-180 153.461 183.98)" fill="black"/>
<path d="M158.641 164L149.992 170.66L142.361 164H158.641Z" fill="black"/>
<path d="M132 241.621C132 231.486 150.17 235.395 150.17 241.621C150.17 235.395 169 231.486 169 241.621C169 251.755 150.17 278.32 150.17 278.32C150.17 278.32 132 251.755 132 241.621Z" fill="black"/>
<rect x="153.461" y="247.98" width="5.92" height="19.98" transform="rotate(-180 153.461 247.98)" fill="black"/>
<path d="M158.641 228L149.992 234.66L142.361 228H158.641Z" fill="black"/>
<path d="M199 256.821C199 262.847 188.196 260.523 188.196 256.821C188.196 260.523 177 262.847 177 256.821C177 250.796 188.196 235 188.196 235C188.196 235 199 250.796 199 256.821Z" fill="black"/>
<rect x="186.238" y="253.039" width="3.52" height="11.88" fill="black"/>
<path d="M183.16 264.921L188.303 260.961L192.84 264.921H183.16Z" fill="black"/>
<path d="M11 54.0985C11 48.0726 21.8036 50.3966 21.8036 54.0985C21.8036 50.3966 33 48.0726 33 54.0985C33 60.1243 21.8036 75.9199 21.8036 75.9199C21.8036 75.9199 11 60.1243 11 54.0985Z" fill="black"/>
<rect x="23.7617" y="57.8809" width="3.52" height="11.88" transform="rotate(-180 23.7617 57.8809)" fill="black"/>
<path d="M26.8398 45.999L21.6973 49.959L17.1598 45.999H26.8398Z" fill="black"/>
</svg>
