<svg width="209" height="312" viewBox="0 0 209 312" fill="none" xmlns="http://www.w3.org/2000/svg">
<rect y="2" width="209" height="310" rx="19" fill="white"/>
<path d="M8.88 37.92L9.76 36.04C11.44 36.7867 13.16 37.16 14.92 37.16C17.0533 37.16 18.8 36.5467 20.16 35.32C21.5467 34.0933 22.24 32.3333 22.24 30.04C22.24 28.2267 21.6933 26.7333 20.6 25.56C19.5067 24.36 17.88 23.76 15.72 23.76C14.7867 23.76 13.52 23.9333 11.92 24.28L11.04 23.76L12.2 11H24.08L25.76 9.4L27.36 10.12L25.52 14.84H14.48L13.88 21.68C15.24 21.3333 16.6133 21.16 18 21.16C19.52 21.16 20.88 21.4267 22.08 21.96C23.3067 22.4667 24.28 23.1467 25 24C25.7467 24.8267 26.3067 25.7333 26.68 26.72C27.0533 27.7067 27.24 28.7067 27.24 29.72C27.24 32.7333 26.1333 35.1333 23.92 36.92C21.7333 38.7067 19.16 39.6 16.2 39.6C13.2133 39.6 10.8 39.0533 8.96 37.96L8.88 37.92Z" fill="black"/>
<path d="M200.12 272.08L199.24 273.96C197.56 273.213 195.84 272.84 194.08 272.84C191.947 272.84 190.2 273.453 188.84 274.68C187.453 275.907 186.76 277.667 186.76 279.96C186.76 281.773 187.307 283.267 188.4 284.44C189.493 285.64 191.12 286.24 193.28 286.24C194.213 286.24 195.48 286.067 197.08 285.72L197.96 286.24L196.8 299H184.92L183.24 300.6L181.64 299.88L183.48 295.16H194.52L195.12 288.32C193.76 288.667 192.387 288.84 191 288.84C189.48 288.84 188.12 288.573 186.92 288.04C185.693 287.533 184.72 286.853 184 286C183.253 285.173 182.693 284.267 182.32 283.28C181.947 282.293 181.76 281.293 181.76 280.28C181.76 277.267 182.867 274.867 185.08 273.08C187.267 271.293 189.84 270.4 192.8 270.4C195.787 270.4 198.2 270.947 200.04 272.04L200.12 272.08Z" fill="black"/>
<path d="M79 103.7C79 113.834 60.8304 109.926 60.8304 103.7C60.8304 109.926 42 113.834 42 103.7C42 93.5654 60.8304 67 60.8304 67C60.8304 67 79 93.5654 79 103.7Z" fill="black"/>
<rect x="57.5391" y="97.3398" width="5.92" height="19.98" fill="black"/>
<path d="M52.3594 117.32L61.0081 110.66L68.6394 117.32H52.3594Z" fill="black"/>
<path d="M123 168.7C123 178.834 104.83 174.926 104.83 168.7C104.83 174.926 86 178.834 86 168.7C86 158.565 104.83 132 104.83 132C104.83 132 123 158.565 123 168.7Z" fill="black"/>
<rect x="101.539" y="162.34" width="5.92" height="19.98" fill="black"/>
<path d="M96.3594 182.32L105.008 175.66L112.639 182.32H96.3594Z" fill="black"/>
<path d="M167 103.7C167 113.834 148.83 109.926 148.83 103.7C148.83 109.926 130 113.834 130 103.7C130 93.5654 148.83 67 148.83 67C148.83 67 167 93.5654 167 103.7Z" fill="black"/>
<rect x="145.539" y="97.3398" width="5.92" height="19.98" fill="black"/>
<path d="M140.359 117.32L149.008 110.66L156.639 117.32H140.359Z" fill="black"/>
<path d="M42 209.621C42 199.486 60.1696 203.395 60.1696 209.621C60.1696 203.395 79 199.486 79 209.621C79 219.755 60.1696 246.32 60.1696 246.32C60.1696 246.32 42 219.755 42 209.621Z" fill="black"/>
<rect x="63.4609" y="215.98" width="5.92" height="19.98" transform="rotate(-180 63.4609 215.98)" fill="black"/>
<path d="M68.6406 196L59.9919 202.66L52.3606 196H68.6406Z" fill="black"/>
<path d="M130 209.621C130 199.486 148.17 203.395 148.17 209.621C148.17 203.395 167 199.486 167 209.621C167 219.755 148.17 246.32 148.17 246.32C148.17 246.32 130 219.755 130 209.621Z" fill="black"/>
<rect x="151.461" y="215.98" width="5.92" height="19.98" transform="rotate(-180 151.461 215.98)" fill="black"/>
<path d="M156.641 196L147.992 202.66L140.361 196H156.641Z" fill="black"/>
<path d="M199 256.821C199 262.847 188.196 260.523 188.196 256.821C188.196 260.523 177 262.847 177 256.821C177 250.796 188.196 235 188.196 235C188.196 235 199 250.796 199 256.821Z" fill="black"/>
<rect x="186.238" y="253.039" width="3.52" height="11.88" fill="black"/>
<path d="M183.16 264.921L188.303 260.961L192.84 264.921H183.16Z" fill="black"/>
<path d="M11 54.0985C11 48.0726 21.8036 50.3966 21.8036 54.0985C21.8036 50.3966 33 48.0726 33 54.0985C33 60.1243 21.8036 75.9199 21.8036 75.9199C21.8036 75.9199 11 60.1243 11 54.0985Z" fill="black"/>
<rect x="23.7617" y="57.8809" width="3.52" height="11.88" transform="rotate(-180 23.7617 57.8809)" fill="black"/>
<path d="M26.8398 45.999L21.6973 49.959L17.1598 45.999H26.8398Z" fill="black"/>
</svg>
