<svg width="209" height="312" viewBox="0 0 209 312" fill="none" xmlns="http://www.w3.org/2000/svg">
<rect y="2" width="209" height="310" rx="19" fill="white"/>
<path d="M8.8 37.96L9.64 36C11.6933 36.7467 13.7067 37.12 15.68 37.12C17.76 37.12 19.4267 36.5867 20.68 35.52C21.9333 34.4533 22.56 33.0667 22.56 31.36C22.56 29.52 21.84 28.0667 20.4 27C18.96 25.9333 16.9067 25.4 14.24 25.4V23.16C16.3467 23.1333 18.0133 22.56 19.24 21.44C20.4933 20.32 21.12 18.8933 21.12 17.16C21.12 15.72 20.6933 14.5467 19.84 13.64C18.9867 12.7333 17.88 12.28 16.52 12.28L12.04 16.36C11.56 16.04 11.0933 15.4667 10.64 14.64C10.1867 13.8133 9.94667 13.04 9.92 12.32C10.96 11.7067 12.1467 11.24 13.48 10.92C14.84 10.5733 16.2 10.4 17.56 10.4C20.4933 10.4 22.6533 11 24.04 12.2C25.4533 13.4 26.16 14.96 26.16 16.88C26.16 18.4 25.6133 19.8 24.52 21.08C23.4533 22.3333 21.9467 23.2667 20 23.88C22.5067 24.2533 24.4 25.12 25.68 26.48C26.9867 27.8133 27.64 29.4133 27.64 31.28C27.64 33.92 26.6 35.9733 24.52 37.44C22.4667 38.88 19.9333 39.6 16.92 39.6C13.9867 39.6 11.28 39.0533 8.8 37.96Z" fill="black"/>
<path d="M200.2 272.04L199.36 274C197.307 273.253 195.293 272.88 193.32 272.88C191.24 272.88 189.573 273.413 188.32 274.48C187.067 275.547 186.44 276.933 186.44 278.64C186.44 280.48 187.16 281.933 188.6 283C190.04 284.067 192.093 284.6 194.76 284.6V286.84C192.653 286.867 190.987 287.44 189.76 288.56C188.507 289.68 187.88 291.107 187.88 292.84C187.88 294.28 188.307 295.453 189.16 296.36C190.013 297.267 191.12 297.72 192.48 297.72L196.96 293.64C197.44 293.96 197.907 294.533 198.36 295.36C198.813 296.187 199.053 296.96 199.08 297.68C198.04 298.293 196.853 298.76 195.52 299.08C194.16 299.427 192.8 299.6 191.44 299.6C188.507 299.6 186.347 299 184.96 297.8C183.547 296.6 182.84 295.04 182.84 293.12C182.84 291.6 183.387 290.2 184.48 288.92C185.547 287.667 187.053 286.733 189 286.12C186.493 285.747 184.6 284.88 183.32 283.52C182.013 282.187 181.36 280.587 181.36 278.72C181.36 276.08 182.4 274.027 184.48 272.56C186.533 271.12 189.067 270.4 192.08 270.4C195.013 270.4 197.72 270.947 200.2 272.04Z" fill="black"/>
<path d="M123 107.7C123 117.834 104.83 113.926 104.83 107.7C104.83 113.926 86 117.834 86 107.7C86 97.5654 104.83 71 104.83 71C104.83 71 123 97.5654 123 107.7Z" fill="black"/>
<rect x="101.539" y="101.34" width="5.92" height="19.98" fill="black"/>
<path d="M96.3594 121.32L105.008 114.66L112.639 121.32H96.3594Z" fill="black"/>
<path d="M123 168.7C123 178.834 104.83 174.926 104.83 168.7C104.83 174.926 86 178.834 86 168.7C86 158.565 104.83 132 104.83 132C104.83 132 123 158.565 123 168.7Z" fill="black"/>
<rect x="101.539" y="162.34" width="5.92" height="19.98" fill="black"/>
<path d="M96.3594 182.32L105.008 175.66L112.639 182.32H96.3594Z" fill="black"/>
<path d="M86 206.621C86 196.486 104.17 200.395 104.17 206.621C104.17 200.395 123 196.486 123 206.621C123 216.755 104.17 243.32 104.17 243.32C104.17 243.32 86 216.755 86 206.621Z" fill="black"/>
<rect x="107.461" y="212.98" width="5.92" height="19.98" transform="rotate(-180 107.461 212.98)" fill="black"/>
<path d="M112.641 193L103.992 199.66L96.3606 193H112.641Z" fill="black"/>
<path d="M199 256.821C199 262.847 188.196 260.523 188.196 256.821C188.196 260.523 177 262.847 177 256.821C177 250.796 188.196 235 188.196 235C188.196 235 199 250.796 199 256.821Z" fill="black"/>
<rect x="186.238" y="253.039" width="3.52" height="11.88" fill="black"/>
<path d="M183.16 264.921L188.303 260.961L192.84 264.921H183.16Z" fill="black"/>
<path d="M11 54.0985C11 48.0726 21.8036 50.3966 21.8036 54.0985C21.8036 50.3966 33 48.0726 33 54.0985C33 60.1243 21.8036 75.9199 21.8036 75.9199C21.8036 75.9199 11 60.1243 11 54.0985Z" fill="black"/>
<rect x="23.7617" y="57.8809" width="3.52" height="11.88" transform="rotate(-180 23.7617 57.8809)" fill="black"/>
<path d="M26.8398 45.999L21.6973 49.959L17.1598 45.999H26.8398Z" fill="black"/>
</svg>
