<svg width="209" height="312" viewBox="0 0 209 312" fill="none" xmlns="http://www.w3.org/2000/svg">
<rect y="2" width="209" height="310" rx="19" fill="white"/>
<path d="M9 19.2L10.12 11H27V12.76C24.3867 16.76 22.2667 21.0267 20.64 25.56C19.0133 30.0933 17.9733 34.5733 17.52 39H12.72C13.2 35.1867 14.44 30.9733 16.44 26.36C18.4667 21.72 20.5067 17.8933 22.56 14.88H12.8L10.76 19.2H9Z" fill="black"/>
<path d="M200 290.8L198.88 299H182V297.24C184.613 293.24 186.733 288.973 188.36 284.44C189.987 279.907 191.027 275.427 191.48 271H196.28C195.8 274.813 194.56 279.027 192.56 283.64C190.533 288.28 188.493 292.107 186.44 295.12H196.2L198.24 290.8H200Z" fill="black"/>
<path d="M79 103.7C79 113.834 60.8304 109.926 60.8304 103.7C60.8304 109.926 42 113.834 42 103.7C42 93.5654 60.8304 67 60.8304 67C60.8304 67 79 93.5654 79 103.7Z" fill="black"/>
<rect x="57.5391" y="97.3398" width="5.92" height="19.98" fill="black"/>
<path d="M52.3594 117.32L61.0081 110.66L68.6394 117.32H52.3594Z" fill="black"/>
<path d="M79 168.7C79 178.834 60.8304 174.926 60.8304 168.7C60.8304 174.926 42 178.834 42 168.7C42 158.565 60.8304 132 60.8304 132C60.8304 132 79 158.565 79 168.7Z" fill="black"/>
<rect x="57.5391" y="162.34" width="5.92" height="19.98" fill="black"/>
<path d="M52.3594 182.32L61.0081 175.66L68.6394 182.32H52.3594Z" fill="black"/>
<path d="M124 133.7C124 143.834 105.83 139.926 105.83 133.7C105.83 139.926 87 143.834 87 133.7C87 123.565 105.83 97 105.83 97C105.83 97 124 123.565 124 133.7Z" fill="black"/>
<rect x="102.539" y="127.34" width="5.92" height="19.98" fill="black"/>
<path d="M97.3594 147.32L106.008 140.66L113.639 147.32H97.3594Z" fill="black"/>
<path d="M167 168.7C167 178.834 148.83 174.926 148.83 168.7C148.83 174.926 130 178.834 130 168.7C130 158.565 148.83 132 148.83 132C148.83 132 167 158.565 167 168.7Z" fill="black"/>
<rect x="145.539" y="162.34" width="5.92" height="19.98" fill="black"/>
<path d="M140.359 182.32L149.008 175.66L156.639 182.32H140.359Z" fill="black"/>
<path d="M167 103.7C167 113.834 148.83 109.926 148.83 103.7C148.83 109.926 130 113.834 130 103.7C130 93.5654 148.83 67 148.83 67C148.83 67 167 93.5654 167 103.7Z" fill="black"/>
<rect x="145.539" y="97.3398" width="5.92" height="19.98" fill="black"/>
<path d="M140.359 117.32L149.008 110.66L156.639 117.32H140.359Z" fill="black"/>
<path d="M42 209.621C42 199.486 60.1696 203.395 60.1696 209.621C60.1696 203.395 79 199.486 79 209.621C79 219.755 60.1696 246.32 60.1696 246.32C60.1696 246.32 42 219.755 42 209.621Z" fill="black"/>
<rect x="63.4609" y="215.98" width="5.92" height="19.98" transform="rotate(-180 63.4609 215.98)" fill="black"/>
<path d="M68.6406 196L59.9919 202.66L52.3606 196H68.6406Z" fill="black"/>
<path d="M130 209.621C130 199.486 148.17 203.395 148.17 209.621C148.17 203.395 167 199.486 167 209.621C167 219.755 148.17 246.32 148.17 246.32C148.17 246.32 130 219.755 130 209.621Z" fill="black"/>
<rect x="151.461" y="215.98" width="5.92" height="19.98" transform="rotate(-180 151.461 215.98)" fill="black"/>
<path d="M156.641 196L147.992 202.66L140.361 196H156.641Z" fill="black"/>
<path d="M199 256.821C199 262.847 188.196 260.523 188.196 256.821C188.196 260.523 177 262.847 177 256.821C177 250.796 188.196 235 188.196 235C188.196 235 199 250.796 199 256.821Z" fill="black"/>
<rect x="186.238" y="253.039" width="3.52" height="11.88" fill="black"/>
<path d="M183.16 264.921L188.303 260.961L192.84 264.921H183.16Z" fill="black"/>
<path d="M11 54.0985C11 48.0726 21.8036 50.3966 21.8036 54.0985C21.8036 50.3966 33 48.0726 33 54.0985C33 60.1243 21.8036 75.9199 21.8036 75.9199C21.8036 75.9199 11 60.1243 11 54.0985Z" fill="black"/>
<rect x="23.7617" y="57.8809" width="3.52" height="11.88" transform="rotate(-180 23.7617 57.8809)" fill="black"/>
<path d="M26.8398 45.999L21.6973 49.959L17.1598 45.999H26.8398Z" fill="black"/>
</svg>
