<svg width="209" height="312" viewBox="0 0 209 312" fill="none" xmlns="http://www.w3.org/2000/svg">
<rect y="2" width="209" height="310" rx="19" fill="white"/>
<path d="M9.16 39V36.6L12.6 32.92C13.4 32.04 14.3333 30.92 15.4 29.56C16.4667 28.2 17.4 26.8933 18.2 25.64C19 24.36 19.68 23 20.24 21.56C20.8267 20.12 21.12 18.8133 21.12 17.64C21.12 16.04 20.72 14.76 19.92 13.8C19.1467 12.84 18.0933 12.36 16.76 12.36L12.04 16.68C10.6 15.6133 9.84 14.1867 9.76 12.4C12.3467 11.0667 15.1733 10.4 18.24 10.4C20.5333 10.4 22.4267 10.96 23.92 12.08C25.44 13.1733 26.2 14.8 26.2 16.96C26.2 18.5067 25.8267 20.1333 25.08 21.84C24.36 23.52 23.32 25.2 21.96 26.88C20.6267 28.56 19.3867 30 18.24 31.2C17.12 32.4 15.8 33.7067 14.28 35.12H23.84L26 30.8H27.76L26.64 39H9.16Z" fill="black"/>
<path d="M199.84 271V273.4L196.4 277.08C195.6 277.96 194.667 279.08 193.6 280.44C192.533 281.8 191.6 283.107 190.8 284.36C190 285.64 189.32 287 188.76 288.44C188.173 289.88 187.88 291.187 187.88 292.36C187.88 293.96 188.28 295.24 189.08 296.2C189.853 297.16 190.907 297.64 192.24 297.64L196.96 293.32C198.4 294.387 199.16 295.813 199.24 297.6C196.653 298.933 193.827 299.6 190.76 299.6C188.467 299.6 186.573 299.04 185.08 297.92C183.56 296.827 182.8 295.2 182.8 293.04C182.8 291.493 183.173 289.867 183.92 288.16C184.64 286.48 185.68 284.8 187.04 283.12C188.373 281.44 189.613 280 190.76 278.8C191.88 277.6 193.2 276.293 194.72 274.88H185.16L183 279.2H181.24L182.36 271H199.84Z" fill="black"/>
<path d="M123 107.7C123 117.834 104.83 113.926 104.83 107.7C104.83 113.926 86 117.834 86 107.7C86 97.5654 104.83 71 104.83 71C104.83 71 123 97.5654 123 107.7Z" fill="black"/>
<rect x="101.539" y="101.34" width="5.92" height="19.98" fill="black"/>
<path d="M96.3594 121.32L105.008 114.66L112.639 121.32H96.3594Z" fill="black"/>
<path d="M86 206.621C86 196.486 104.17 200.395 104.17 206.621C104.17 200.395 123 196.486 123 206.621C123 216.755 104.17 243.32 104.17 243.32C104.17 243.32 86 216.755 86 206.621Z" fill="black"/>
<rect x="107.461" y="212.98" width="5.92" height="19.98" transform="rotate(-180 107.461 212.98)" fill="black"/>
<path d="M112.641 193L103.992 199.66L96.3606 193H112.641Z" fill="black"/>
<path d="M199 256.821C199 262.847 188.196 260.523 188.196 256.821C188.196 260.523 177 262.847 177 256.821C177 250.796 188.196 235 188.196 235C188.196 235 199 250.796 199 256.821Z" fill="black"/>
<rect x="186.238" y="253.039" width="3.52" height="11.88" fill="black"/>
<path d="M183.16 264.921L188.303 260.961L192.84 264.921H183.16Z" fill="black"/>
<path d="M11 54.0985C11 48.0726 21.8036 50.3966 21.8036 54.0985C21.8036 50.3966 33 48.0726 33 54.0985C33 60.1243 21.8036 75.9199 21.8036 75.9199C21.8036 75.9199 11 60.1243 11 54.0985Z" fill="black"/>
<rect x="23.7617" y="57.8809" width="3.52" height="11.88" transform="rotate(-180 23.7617 57.8809)" fill="black"/>
<path d="M26.8398 45.999L21.6973 49.959L17.1598 45.999H26.8398Z" fill="black"/>
</svg>
