<svg width="209" height="312" viewBox="0 0 209 312" fill="none" xmlns="http://www.w3.org/2000/svg">
<rect y="2" width="209" height="310" rx="19" fill="white"/>
<path d="M8.88 37.92L9.76 36.04C11.44 36.7867 13.16 37.16 14.92 37.16C17.0533 37.16 18.8 36.5467 20.16 35.32C21.5467 34.0933 22.24 32.3333 22.24 30.04C22.24 28.2267 21.6933 26.7333 20.6 25.56C19.5067 24.36 17.88 23.76 15.72 23.76C14.7867 23.76 13.52 23.9333 11.92 24.28L11.04 23.76L12.2 11H24.08L25.76 9.4L27.36 10.12L25.52 14.84H14.48L13.88 21.68C15.24 21.3333 16.6133 21.16 18 21.16C19.52 21.16 20.88 21.4267 22.08 21.96C23.3067 22.4667 24.28 23.1467 25 24C25.7467 24.8267 26.3067 25.7333 26.68 26.72C27.0533 27.7067 27.24 28.7067 27.24 29.72C27.24 32.7333 26.1333 35.1333 23.92 36.92C21.7333 38.7067 19.16 39.6 16.2 39.6C13.2133 39.6 10.8 39.0533 8.96 37.96L8.88 37.92Z" fill="black"/>
<path d="M200.12 272.08L199.24 273.96C197.56 273.213 195.84 272.84 194.08 272.84C191.947 272.84 190.2 273.453 188.84 274.68C187.453 275.907 186.76 277.667 186.76 279.96C186.76 281.773 187.307 283.267 188.4 284.44C189.493 285.64 191.12 286.24 193.28 286.24C194.213 286.24 195.48 286.067 197.08 285.72L197.96 286.24L196.8 299H184.92L183.24 300.6L181.64 299.88L183.48 295.16H194.52L195.12 288.32C193.76 288.667 192.387 288.84 191 288.84C189.48 288.84 188.12 288.573 186.92 288.04C185.693 287.533 184.72 286.853 184 286C183.253 285.173 182.693 284.267 182.32 283.28C181.947 282.293 181.76 281.293 181.76 280.28C181.76 277.267 182.867 274.867 185.08 273.08C187.267 271.293 189.84 270.4 192.8 270.4C195.787 270.4 198.2 270.947 200.04 272.04L200.12 272.08Z" fill="black"/>
<circle cx="67.5" cy="233.5" r="10.5" transform="rotate(-180 67.5 233.5)" fill="black"/>
<circle cx="80.5" cy="216.5" r="10.5" transform="rotate(-180 80.5 216.5)" fill="black"/>
<circle cx="54.5" cy="216.5" r="10.5" transform="rotate(-180 54.5 216.5)" fill="black"/>
<rect x="69" y="226" width="3" height="24" transform="rotate(-180 69 226)" fill="black"/>
<rect x="79" y="215" width="3" height="24" transform="rotate(90 79 215)" fill="black"/>
<path d="M74 198L67.5 207L61 198H74Z" fill="black"/>
<circle cx="140.5" cy="233.5" r="10.5" transform="rotate(-180 140.5 233.5)" fill="black"/>
<circle cx="153.5" cy="216.5" r="10.5" transform="rotate(-180 153.5 216.5)" fill="black"/>
<circle cx="127.5" cy="216.5" r="10.5" transform="rotate(-180 127.5 216.5)" fill="black"/>
<rect x="142" y="226" width="3" height="24" transform="rotate(-180 142 226)" fill="black"/>
<rect x="152" y="215" width="3" height="24" transform="rotate(90 152 215)" fill="black"/>
<path d="M147 198L140.5 207L134 198H147Z" fill="black"/>
<circle cx="67.5" cy="80.5" r="10.5" fill="black"/>
<circle cx="54.5" cy="97.5" r="10.5" fill="black"/>
<circle cx="80.5" cy="97.5" r="10.5" fill="black"/>
<rect x="66" y="88" width="3" height="24" fill="black"/>
<rect x="56" y="99" width="3" height="24" transform="rotate(-90 56 99)" fill="black"/>
<path d="M61 116L67.5 107L74 116H61Z" fill="black"/>
<circle cx="104.5" cy="144.5" r="10.5" fill="black"/>
<circle cx="91.5" cy="161.5" r="10.5" fill="black"/>
<circle cx="117.5" cy="161.5" r="10.5" fill="black"/>
<rect x="103" y="152" width="3" height="24" fill="black"/>
<rect x="93" y="163" width="3" height="24" transform="rotate(-90 93 163)" fill="black"/>
<path d="M98 180L104.5 171L111 180H98Z" fill="black"/>
<circle cx="140.5" cy="80.5" r="10.5" fill="black"/>
<circle cx="127.5" cy="97.5" r="10.5" fill="black"/>
<circle cx="153.5" cy="97.5" r="10.5" fill="black"/>
<rect x="139" y="88" width="3" height="24" fill="black"/>
<rect x="129" y="99" width="3" height="24" transform="rotate(-90 129 99)" fill="black"/>
<path d="M134 116L140.5 107L147 116H134Z" fill="black"/>
<circle cx="187.558" cy="243.058" r="6.05809" fill="black"/>
<circle cx="180.058" cy="252.867" r="6.05809" fill="black"/>
<circle cx="195.058" cy="252.867" r="6.05809" fill="black"/>
<rect x="186.691" y="247.385" width="1.73088" height="13.8471" fill="black"/>
<rect x="180.922" y="253.732" width="1.73088" height="13.8471" transform="rotate(-90 180.922 253.732)" fill="black"/>
<path d="M183.809 263.54L187.559 258.348L191.309 263.54H183.809Z" fill="black"/>
<circle cx="21.5591" cy="66.481" r="6.05809" transform="rotate(-180 21.5591 66.481)" fill="black"/>
<circle cx="29.0591" cy="56.6724" r="6.05809" transform="rotate(-180 29.0591 56.6724)" fill="black"/>
<circle cx="14.0591" cy="56.6724" r="6.05809" transform="rotate(-180 14.0591 56.6724)" fill="black"/>
<rect x="22.4258" y="62.1543" width="1.73088" height="13.8471" transform="rotate(-180 22.4258 62.1543)" fill="black"/>
<rect x="28.1953" y="55.8066" width="1.73088" height="13.8471" transform="rotate(90 28.1953 55.8066)" fill="black"/>
<path d="M25.3086 45.9988L21.5583 51.1914L17.8081 45.9988H25.3086Z" fill="black"/>
</svg>
