<svg width="209" height="312" viewBox="0 0 209 312" fill="none" xmlns="http://www.w3.org/2000/svg">
<rect y="2" width="209" height="310" rx="19" fill="white"/>
<path d="M10.64 32.24C10.64 29.3333 12.5467 26.7067 16.36 24.36C14.7867 23.2933 13.56 22.2 12.68 21.08C11.8 19.9333 11.36 18.5733 11.36 17C11.36 14.92 12.1867 13.3067 13.84 12.16C15.52 10.9867 17.5067 10.4 19.8 10.4C22.0667 10.4 24 10.96 25.6 12.08C27.2267 13.2 28.04 14.76 28.04 16.76C28.04 19.2667 26.6 21.5467 23.72 23.6C25.4 24.6933 26.7067 25.88 27.64 27.16C28.6 28.4133 29.08 29.96 29.08 31.8C29.08 34.2 28.1333 36.1067 26.24 37.52C24.3467 38.9067 22.1733 39.6 19.72 39.6C17.32 39.6 15.2 38.9467 13.36 37.64C11.5467 36.3067 10.64 34.5067 10.64 32.24ZM14.68 32.24C14.68 33.84 15.1733 35.0933 16.16 36C17.1467 36.88 18.32 37.32 19.68 37.32C20.9867 37.32 22.1067 36.8933 23.04 36.04C24 35.1867 24.48 34.0133 24.48 32.52C24.48 31.7733 24.3333 31.0933 24.04 30.48C23.7467 29.84 23.2533 29.2267 22.56 28.64C21.8667 28.0267 21.2533 27.5467 20.72 27.2C20.2133 26.8267 19.4533 26.32 18.44 25.68C17.16 26.64 16.2133 27.72 15.6 28.92C14.9867 30.0933 14.68 31.2 14.68 32.24ZM15.92 16.4C15.92 16.9067 16.04 17.4133 16.28 17.92C16.52 18.4 16.7733 18.8133 17.04 19.16C17.3067 19.48 17.7467 19.8667 18.36 20.32C19 20.7733 19.4933 21.1067 19.84 21.32L21.64 22.36C22.44 21.5867 23.04 20.7067 23.44 19.72C23.84 18.7333 24.04 17.8533 24.04 17.08C24.04 15.72 23.6267 14.6667 22.8 13.92C21.9733 13.1467 20.96 12.76 19.76 12.76C18.72 12.76 17.8133 13.0933 17.04 13.76C16.2933 14.4 15.92 15.28 15.92 16.4Z" fill="black"/>
<path d="M198.36 277.76C198.36 280.667 196.453 283.293 192.64 285.64C194.213 286.707 195.44 287.8 196.32 288.92C197.2 290.067 197.64 291.427 197.64 293C197.64 295.08 196.813 296.693 195.16 297.84C193.48 299.013 191.493 299.6 189.2 299.6C186.933 299.6 185 299.04 183.4 297.92C181.773 296.8 180.96 295.24 180.96 293.24C180.96 290.733 182.4 288.453 185.28 286.4C183.6 285.307 182.293 284.12 181.36 282.84C180.4 281.587 179.92 280.04 179.92 278.2C179.92 275.8 180.867 273.893 182.76 272.48C184.653 271.093 186.827 270.4 189.28 270.4C191.68 270.4 193.8 271.053 195.64 272.36C197.453 273.693 198.36 275.493 198.36 277.76ZM194.32 277.76C194.32 276.16 193.827 274.907 192.84 274C191.853 273.12 190.68 272.68 189.32 272.68C188.013 272.68 186.893 273.107 185.96 273.96C185 274.813 184.52 275.987 184.52 277.48C184.52 278.227 184.667 278.907 184.96 279.52C185.253 280.16 185.747 280.773 186.44 281.36C187.133 281.973 187.747 282.453 188.28 282.8C188.787 283.173 189.547 283.68 190.56 284.32C191.84 283.36 192.787 282.28 193.4 281.08C194.013 279.907 194.32 278.8 194.32 277.76ZM193.08 293.6C193.08 293.093 192.96 292.587 192.72 292.08C192.48 291.6 192.227 291.187 191.96 290.84C191.693 290.52 191.253 290.133 190.64 289.68C190 289.227 189.507 288.893 189.16 288.68L187.36 287.64C186.56 288.413 185.96 289.293 185.56 290.28C185.16 291.267 184.96 292.147 184.96 292.92C184.96 294.28 185.373 295.333 186.2 296.08C187.027 296.853 188.04 297.24 189.24 297.24C190.28 297.24 191.187 296.907 191.96 296.24C192.707 295.6 193.08 294.72 193.08 293.6Z" fill="black"/>
<circle cx="67.5" cy="233.5" r="10.5" transform="rotate(-180 67.5 233.5)" fill="black"/>
<circle cx="80.5" cy="216.5" r="10.5" transform="rotate(-180 80.5 216.5)" fill="black"/>
<circle cx="54.5" cy="216.5" r="10.5" transform="rotate(-180 54.5 216.5)" fill="black"/>
<rect x="69" y="226" width="3" height="24" transform="rotate(-180 69 226)" fill="black"/>
<rect x="79" y="215" width="3" height="24" transform="rotate(90 79 215)" fill="black"/>
<path d="M74 198L67.5 207L61 198H74Z" fill="black"/>
<circle cx="140.5" cy="233.5" r="10.5" transform="rotate(-180 140.5 233.5)" fill="black"/>
<circle cx="153.5" cy="216.5" r="10.5" transform="rotate(-180 153.5 216.5)" fill="black"/>
<circle cx="127.5" cy="216.5" r="10.5" transform="rotate(-180 127.5 216.5)" fill="black"/>
<rect x="142" y="226" width="3" height="24" transform="rotate(-180 142 226)" fill="black"/>
<rect x="152" y="215" width="3" height="24" transform="rotate(90 152 215)" fill="black"/>
<path d="M147 198L140.5 207L134 198H147Z" fill="black"/>
<circle cx="67.5" cy="80.5" r="10.5" fill="black"/>
<circle cx="54.5" cy="97.5" r="10.5" fill="black"/>
<circle cx="80.5" cy="97.5" r="10.5" fill="black"/>
<rect x="66" y="88" width="3" height="24" fill="black"/>
<rect x="56" y="99" width="3" height="24" transform="rotate(-90 56 99)" fill="black"/>
<path d="M61 116L67.5 107L74 116H61Z" fill="black"/>
<circle cx="67.5" cy="144.5" r="10.5" fill="black"/>
<circle cx="54.5" cy="161.5" r="10.5" fill="black"/>
<circle cx="80.5" cy="161.5" r="10.5" fill="black"/>
<rect x="66" y="152" width="3" height="24" fill="black"/>
<rect x="56" y="163" width="3" height="24" transform="rotate(-90 56 163)" fill="black"/>
<path d="M61 180L67.5 171L74 180H61Z" fill="black"/>
<circle cx="103.5" cy="110.5" r="10.5" fill="black"/>
<circle cx="90.5" cy="127.5" r="10.5" fill="black"/>
<circle cx="116.5" cy="127.5" r="10.5" fill="black"/>
<rect x="102" y="118" width="3" height="24" fill="black"/>
<rect x="92" y="129" width="3" height="24" transform="rotate(-90 92 129)" fill="black"/>
<path d="M97 146L103.5 137L110 146H97Z" fill="black"/>
<circle cx="103.5" cy="174.5" r="10.5" fill="black"/>
<circle cx="90.5" cy="191.5" r="10.5" fill="black"/>
<circle cx="116.5" cy="191.5" r="10.5" fill="black"/>
<rect x="102" y="182" width="3" height="24" fill="black"/>
<rect x="92" y="193" width="3" height="24" transform="rotate(-90 92 193)" fill="black"/>
<path d="M97 210L103.5 201L110 210H97Z" fill="black"/>
<circle cx="140.5" cy="144.5" r="10.5" fill="black"/>
<circle cx="127.5" cy="161.5" r="10.5" fill="black"/>
<circle cx="153.5" cy="161.5" r="10.5" fill="black"/>
<rect x="139" y="152" width="3" height="24" fill="black"/>
<rect x="129" y="163" width="3" height="24" transform="rotate(-90 129 163)" fill="black"/>
<path d="M134 180L140.5 171L147 180H134Z" fill="black"/>
<circle cx="140.5" cy="80.5" r="10.5" fill="black"/>
<circle cx="127.5" cy="97.5" r="10.5" fill="black"/>
<circle cx="153.5" cy="97.5" r="10.5" fill="black"/>
<rect x="139" y="88" width="3" height="24" fill="black"/>
<rect x="129" y="99" width="3" height="24" transform="rotate(-90 129 99)" fill="black"/>
<path d="M134 116L140.5 107L147 116H134Z" fill="black"/>
<circle cx="187.558" cy="243.058" r="6.05809" fill="black"/>
<circle cx="180.058" cy="252.867" r="6.05809" fill="black"/>
<circle cx="195.058" cy="252.867" r="6.05809" fill="black"/>
<rect x="186.691" y="247.385" width="1.73088" height="13.8471" fill="black"/>
<rect x="180.922" y="253.732" width="1.73088" height="13.8471" transform="rotate(-90 180.922 253.732)" fill="black"/>
<path d="M183.809 263.54L187.559 258.348L191.309 263.54H183.809Z" fill="black"/>
<circle cx="21.5591" cy="66.481" r="6.05809" transform="rotate(-180 21.5591 66.481)" fill="black"/>
<circle cx="29.0591" cy="56.6724" r="6.05809" transform="rotate(-180 29.0591 56.6724)" fill="black"/>
<circle cx="14.0591" cy="56.6724" r="6.05809" transform="rotate(-180 14.0591 56.6724)" fill="black"/>
<rect x="22.4258" y="62.1543" width="1.73088" height="13.8471" transform="rotate(-180 22.4258 62.1543)" fill="black"/>
<rect x="28.1953" y="55.8066" width="1.73088" height="13.8471" transform="rotate(90 28.1953 55.8066)" fill="black"/>
<path d="M25.3086 45.9988L21.5583 51.1914L17.8081 45.9988H25.3086Z" fill="black"/>
</svg>
