<svg width="209" height="312" viewBox="0 0 209 312" fill="none" xmlns="http://www.w3.org/2000/svg">
<rect y="2" width="209" height="310" rx="19" fill="white"/>
<path d="M7.6 39V37.16L11.36 36.28L21.08 10.8H23.96L33.08 36.32L36.76 37.16V39H25V37.16L27.96 36.48L26.04 31.08H16.24L14.16 36.36L17.68 37.16V39H7.6ZM17.12 28.72H25.16L21.24 17.8L17.12 28.72Z" fill="#FF0000"/>
<path d="M201.4 271V272.84L197.64 273.72L187.92 299.2H185.04L175.92 273.68L172.24 272.84V271H184V272.84L181.04 273.52L182.96 278.92H192.76L194.84 273.64L191.32 272.84V271H201.4ZM191.88 281.28H183.84L187.76 292.2L191.88 281.28Z" fill="#FF0000"/>
<path d="M32 63.4273C32 69.0681 22.2041 69.964 22.2041 63.4273C22.2041 69.964 12 69.0681 12 63.4273C12 53.6222 22.2041 43 22.2041 43C22.2041 43 32 54.0307 32 63.4273Z" fill="#FF0000"/>
<path d="M176 243.573C176 237.932 185.796 237.036 185.796 243.573C185.796 237.036 196 237.932 196 243.573C196 253.378 185.796 264 185.796 264C185.796 264 176 252.969 176 243.573Z" fill="#FF0000"/>
<path d="M67 128.645C67 108.112 103.245 104.851 103.245 128.645C103.245 104.851 141 108.112 141 128.645C141 164.335 103.245 203 103.245 203C103.245 203 67 162.848 67 128.645Z" fill="#FF0000"/>
</svg>
