<svg width="209" height="312" viewBox="0 0 209 312" fill="none" xmlns="http://www.w3.org/2000/svg">
<rect y="2" width="209" height="310" rx="19" fill="white"/>
<path d="M8.88 37.92L9.76 36.04C11.44 36.7867 13.16 37.16 14.92 37.16C17.0533 37.16 18.8 36.5467 20.16 35.32C21.5467 34.0933 22.24 32.3333 22.24 30.04C22.24 28.2267 21.6933 26.7333 20.6 25.56C19.5067 24.36 17.88 23.76 15.72 23.76C14.7867 23.76 13.52 23.9333 11.92 24.28L11.04 23.76L12.2 11H24.08L25.76 9.4L27.36 10.12L25.52 14.84H14.48L13.88 21.68C15.24 21.3333 16.6133 21.16 18 21.16C19.52 21.16 20.88 21.4267 22.08 21.96C23.3067 22.4667 24.28 23.1467 25 24C25.7467 24.8267 26.3067 25.7333 26.68 26.72C27.0533 27.7067 27.24 28.7067 27.24 29.72C27.24 32.7333 26.1333 35.1333 23.92 36.92C21.7333 38.7067 19.16 39.6 16.2 39.6C13.2133 39.6 10.8 39.0533 8.96 37.96L8.88 37.92Z" fill="#FF0000"/>
<path d="M200.12 272.08L199.24 273.96C197.56 273.213 195.84 272.84 194.08 272.84C191.947 272.84 190.2 273.453 188.84 274.68C187.453 275.907 186.76 277.667 186.76 279.96C186.76 281.773 187.307 283.267 188.4 284.44C189.493 285.64 191.12 286.24 193.28 286.24C194.213 286.24 195.48 286.067 197.08 285.72L197.96 286.24L196.8 299H184.92L183.24 300.6L181.64 299.88L183.48 295.16H194.52L195.12 288.32C193.76 288.667 192.387 288.84 191 288.84C189.48 288.84 188.12 288.573 186.92 288.04C185.693 287.533 184.72 286.853 184 286C183.253 285.173 182.693 284.267 182.32 283.28C181.947 282.293 181.76 281.293 181.76 280.28C181.76 277.267 182.867 274.867 185.08 273.08C187.267 271.293 189.84 270.4 192.8 270.4C195.787 270.4 198.2 270.947 200.04 272.04L200.12 272.08Z" fill="#FF0000"/>
<path d="M32 63.4273C32 69.0681 22.2041 69.964 22.2041 63.4273C22.2041 69.964 12 69.0681 12 63.4273C12 53.6222 22.2041 43 22.2041 43C22.2041 43 32 54.0307 32 63.4273Z" fill="#FF0000"/>
<path d="M176 243.573C176 237.932 185.796 237.036 185.796 243.573C185.796 237.036 196 237.932 196 243.573C196 253.378 185.796 264 185.796 264C185.796 264 176 252.969 176 243.573Z" fill="#FF0000"/>
<path d="M38 62.06C38 49.6502 60.0408 47.6793 60.0408 62.06C60.0408 47.6793 83 49.6502 83 62.06C83 83.6312 60.0408 107 60.0408 107C60.0408 107 38 82.7324 38 62.06Z" fill="#FF0000"/>
<path d="M82 140.06C82 127.65 104.041 125.679 104.041 140.06C104.041 125.679 127 127.65 127 140.06C127 161.631 104.041 185 104.041 185C104.041 185 82 160.732 82 140.06Z" fill="#FF0000"/>
<path d="M83 252.94C83 265.35 60.9592 267.321 60.9592 252.94C60.9592 267.321 38 265.35 38 252.94C38 231.369 60.9592 208 60.9592 208C60.9592 208 83 232.268 83 252.94Z" fill="#FF0000"/>
<path d="M171 252.94C171 265.35 148.959 267.321 148.959 252.94C148.959 267.321 126 265.35 126 252.94C126 231.369 148.959 208 148.959 208C148.959 208 171 232.268 171 252.94Z" fill="#FF0000"/>
<path d="M126 62.06C126 49.6502 148.041 47.6793 148.041 62.06C148.041 47.6793 171 49.6502 171 62.06C171 83.6312 148.041 107 148.041 107C148.041 107 126 82.7324 126 62.06Z" fill="#FF0000"/>
</svg>
