<svg width="209" height="312" viewBox="0 0 209 312" fill="none" xmlns="http://www.w3.org/2000/svg">
<rect y="2" width="209" height="310" rx="19" fill="white"/>
<path d="M9 15.44L17.44 11H19.32V36.52L22.72 37.28V39H9.84V37.28L14.44 36.48V15.04L9.64 17.08L9 15.44ZM36.9291 10.4C40.1824 10.4 42.7557 11.76 44.6491 14.48C46.5691 17.1733 47.5291 20.68 47.5291 25C47.5291 29.2667 46.5691 32.7733 44.6491 35.52C42.7557 38.24 40.1824 39.6 36.9291 39.6C33.6757 39.6 31.0891 38.24 29.1691 35.52C27.2757 32.7733 26.3291 29.2667 26.3291 25C26.3291 20.7067 27.2757 17.2 29.1691 14.48C31.0891 11.76 33.6757 10.4 36.9291 10.4ZM36.9291 12.76C35.1957 12.76 33.8491 13.9467 32.8891 16.32C31.9291 18.6933 31.4491 21.5867 31.4491 25C31.4491 28.4133 31.9291 31.3067 32.8891 33.68C33.8491 36.0533 35.1957 37.24 36.9291 37.24C38.6624 37.24 40.0091 36.0533 40.9691 33.68C41.9291 31.3067 42.4091 28.4133 42.4091 25C42.4091 21.5867 41.9291 18.6933 40.9691 16.32C40.0091 13.9467 38.6624 12.76 36.9291 12.76Z" fill="black"/>
<path d="M200 294.56L191.56 299H189.68V273.48L186.28 272.72V271H199.16V272.72L194.56 273.52V294.96L199.36 292.92L200 294.56ZM172.071 299.6C168.818 299.6 166.244 298.24 164.351 295.52C162.431 292.827 161.471 289.32 161.471 285C161.471 280.733 162.431 277.227 164.351 274.48C166.244 271.76 168.818 270.4 172.071 270.4C175.324 270.4 177.911 271.76 179.831 274.48C181.724 277.227 182.671 280.733 182.671 285C182.671 289.293 181.724 292.8 179.831 295.52C177.911 298.24 175.324 299.6 172.071 299.6ZM172.071 297.24C173.804 297.24 175.151 296.053 176.111 293.68C177.071 291.307 177.551 288.413 177.551 285C177.551 281.587 177.071 278.693 176.111 276.32C175.151 273.947 173.804 272.76 172.071 272.76C170.338 272.76 168.991 273.947 168.031 276.32C167.071 278.693 166.591 281.587 166.591 285C166.591 288.413 167.071 291.307 168.031 293.68C168.991 296.053 170.338 297.24 172.071 297.24Z" fill="black"/>
<path d="M80 71.6997C80 81.8341 61.8304 77.9256 61.8304 71.6997C61.8304 77.9256 43 81.8341 43 71.6997C43 61.5654 61.8304 35 61.8304 35C61.8304 35 80 61.5654 80 71.6997Z" fill="black"/>
<rect x="58.5391" y="65.3398" width="5.92" height="19.98" fill="black"/>
<path d="M53.3594 85.3202L62.0081 78.6602L69.6394 85.3202H53.3594Z" fill="black"/>
<path d="M80 136.7C80 146.834 61.8304 142.926 61.8304 136.7C61.8304 142.926 43 146.834 43 136.7C43 126.565 61.8304 100 61.8304 100C61.8304 100 80 126.565 80 136.7Z" fill="black"/>
<rect x="58.5391" y="130.34" width="5.92" height="19.98" fill="black"/>
<path d="M53.3594 150.32L62.0081 143.66L69.6394 150.32H53.3594Z" fill="black"/>
<path d="M124 111.7C124 121.834 105.83 117.926 105.83 111.7C105.83 117.926 87 121.834 87 111.7C87 101.565 105.83 75 105.83 75C105.83 75 124 101.565 124 111.7Z" fill="black"/>
<rect x="102.539" y="105.34" width="5.92" height="19.98" fill="black"/>
<path d="M97.3594 125.32L106.008 118.66L113.639 125.32H97.3594Z" fill="black"/>
<path d="M174 136.7C174 146.834 155.83 142.926 155.83 136.7C155.83 142.926 137 146.834 137 136.7C137 126.565 155.83 100 155.83 100C155.83 100 174 126.565 174 136.7Z" fill="black"/>
<rect x="152.539" y="130.34" width="5.92" height="19.98" fill="black"/>
<path d="M147.359 150.32L156.008 143.66L163.639 150.32H147.359Z" fill="black"/>
<path d="M168 71.6997C168 81.8341 149.83 77.9256 149.83 71.6997C149.83 77.9256 131 81.8341 131 71.6997C131 61.5654 149.83 35 149.83 35C149.83 35 168 61.5654 168 71.6997Z" fill="black"/>
<rect x="146.539" y="65.3398" width="5.92" height="19.98" fill="black"/>
<path d="M141.359 85.3202L150.008 78.6602L157.639 85.3202H141.359Z" fill="black"/>
<path d="M43 177.621C43 167.486 61.1696 171.395 61.1696 177.621C61.1696 171.395 80 167.486 80 177.621C80 187.755 61.1696 214.32 61.1696 214.32C61.1696 214.32 43 187.755 43 177.621Z" fill="black"/>
<rect x="64.4609" y="183.98" width="5.92" height="19.98" transform="rotate(-180 64.4609 183.98)" fill="black"/>
<path d="M69.6406 164L60.9919 170.66L53.3606 164H69.6406Z" fill="black"/>
<path d="M87 216.621C87 206.486 105.17 210.395 105.17 216.621C105.17 210.395 124 206.486 124 216.621C124 226.755 105.17 253.32 105.17 253.32C105.17 253.32 87 226.755 87 216.621Z" fill="black"/>
<rect x="108.461" y="222.98" width="5.92" height="19.98" transform="rotate(-180 108.461 222.98)" fill="black"/>
<path d="M113.641 203L104.992 209.66L97.3606 203H113.641Z" fill="black"/>
<path d="M43 241.621C43 231.486 61.1696 235.395 61.1696 241.621C61.1696 235.395 80 231.486 80 241.621C80 251.755 61.1696 278.32 61.1696 278.32C61.1696 278.32 43 251.755 43 241.621Z" fill="black"/>
<rect x="64.4609" y="247.98" width="5.92" height="19.98" transform="rotate(-180 64.4609 247.98)" fill="black"/>
<path d="M69.6406 228L60.9919 234.66L53.3606 228H69.6406Z" fill="black"/>
<path d="M131 177.621C131 167.486 149.17 171.395 149.17 177.621C149.17 171.395 168 167.486 168 177.621C168 187.755 149.17 214.32 149.17 214.32C149.17 214.32 131 187.755 131 177.621Z" fill="black"/>
<rect x="152.461" y="183.98" width="5.92" height="19.98" transform="rotate(-180 152.461 183.98)" fill="black"/>
<path d="M157.641 164L148.992 170.66L141.361 164H157.641Z" fill="black"/>
<path d="M131 241.621C131 231.486 149.17 235.395 149.17 241.621C149.17 235.395 168 231.486 168 241.621C168 251.755 149.17 278.32 149.17 278.32C149.17 278.32 131 251.755 131 241.621Z" fill="black"/>
<rect x="152.461" y="247.98" width="5.92" height="19.98" transform="rotate(-180 152.461 247.98)" fill="black"/>
<path d="M157.641 228L148.992 234.66L141.361 228H157.641Z" fill="black"/>
<path d="M199 256.821C199 262.847 188.196 260.523 188.196 256.821C188.196 260.523 177 262.847 177 256.821C177 250.796 188.196 235 188.196 235C188.196 235 199 250.796 199 256.821Z" fill="black"/>
<rect x="186.238" y="253.039" width="3.52" height="11.88" fill="black"/>
<path d="M183.16 264.921L188.303 260.961L192.84 264.921H183.16Z" fill="black"/>
<path d="M11 54.0985C11 48.0726 21.8036 50.3966 21.8036 54.0985C21.8036 50.3966 33 48.0726 33 54.0985C33 60.1243 21.8036 75.9199 21.8036 75.9199C21.8036 75.9199 11 60.1243 11 54.0985Z" fill="black"/>
<rect x="23.7617" y="57.8809" width="3.52" height="11.88" transform="rotate(-180 23.7617 57.8809)" fill="black"/>
<path d="M26.8398 45.999L21.6973 49.959L17.1598 45.999H26.8398Z" fill="black"/>
</svg>
