<svg width="209" height="312" viewBox="0 0 209 312" fill="none" xmlns="http://www.w3.org/2000/svg">
<rect y="2" width="209" height="310" rx="19" fill="white"/>
<path d="M7.6 39V36.76L11.52 35.84L21.08 10.8H24.56L33.52 35.84L37.36 36.76V39H23.8V36.76L26.64 36.08L24.92 31.28H16.52L14.72 35.96L18.08 36.76V39H7.6ZM17.6 28.52H23.92L20.8 20L17.6 28.52Z" fill="black"/>
<path d="M201.4 271V273.24L197.48 274.16L187.92 299.2H184.44L175.48 274.16L171.64 273.24V271H185.2V273.24L182.36 273.92L184.08 278.72H192.48L194.28 274.04L190.92 273.24V271H201.4ZM191.4 281.48H185.08L188.2 290L191.4 281.48Z" fill="black"/>
<circle cx="104.267" cy="136.545" r="17.5447" fill="black"/>
<circle cx="82.5446" cy="164.951" r="17.5447" fill="black"/>
<circle cx="125.99" cy="164.951" r="17.5447" fill="black"/>
<rect x="101.762" y="149.076" width="5.01276" height="40.1021" fill="black"/>
<rect x="85.0508" y="167.457" width="5.01276" height="40.1021" transform="rotate(-90 85.0508 167.457)" fill="black"/>
<path d="M93.4062 195.862L104.267 180.824L115.128 195.862H93.4062Z" fill="black"/>
<circle cx="187.558" cy="243.058" r="6.05809" fill="black"/>
<circle cx="180.058" cy="252.867" r="6.05809" fill="black"/>
<circle cx="195.058" cy="252.867" r="6.05809" fill="black"/>
<rect x="186.691" y="247.385" width="1.73088" height="13.8471" fill="black"/>
<rect x="180.922" y="253.732" width="1.73088" height="13.8471" transform="rotate(-90 180.922 253.732)" fill="black"/>
<path d="M183.809 263.54L187.559 258.348L191.309 263.54H183.809Z" fill="black"/>
<circle cx="21.5591" cy="66.481" r="6.05809" transform="rotate(-180 21.5591 66.481)" fill="black"/>
<circle cx="29.0591" cy="56.6724" r="6.05809" transform="rotate(-180 29.0591 56.6724)" fill="black"/>
<circle cx="14.0591" cy="56.6724" r="6.05809" transform="rotate(-180 14.0591 56.6724)" fill="black"/>
<rect x="22.4258" y="62.1543" width="1.73088" height="13.8471" transform="rotate(-180 22.4258 62.1543)" fill="black"/>
<rect x="28.1953" y="55.8066" width="1.73088" height="13.8471" transform="rotate(90 28.1953 55.8066)" fill="black"/>
<path d="M25.3086 45.9988L21.5583 51.1914L17.8081 45.9988H25.3086Z" fill="black"/>
</svg>
