<svg width="209" height="312" viewBox="0 0 209 312" fill="none" xmlns="http://www.w3.org/2000/svg">
<rect y="2" width="209" height="310" rx="19" fill="white"/>
<path d="M9.24 39V36.2C9.64 35.8 10.12 35.2933 10.68 34.68C11.2667 34.04 12.1467 32.9867 13.32 31.52C14.52 30.0533 15.5733 28.6133 16.48 27.2C17.3867 25.7867 18.2 24.2 18.92 22.44C19.64 20.6533 20 19.0533 20 17.64C20 16.3067 19.7067 15.16 19.12 14.2C18.5333 13.24 17.7733 12.76 16.84 12.76L12.12 17.48C10.7067 16.1733 9.94667 14.48 9.84 12.4C12.4267 11.0667 15.2533 10.4 18.32 10.4C20.8 10.4 22.8133 10.9467 24.36 12.04C25.9067 13.1333 26.68 14.8133 26.68 17.08C26.68 22.0133 23.1733 27.6267 16.16 33.92H24.52L26.08 30.8H28.24L27.12 39H9.24Z" fill="black"/>
<path d="M199.76 271V273.8C199.36 274.2 198.88 274.707 198.32 275.32C197.733 275.96 196.853 277.013 195.68 278.48C194.48 279.947 193.427 281.387 192.52 282.8C191.613 284.213 190.8 285.8 190.08 287.56C189.36 289.347 189 290.947 189 292.36C189 293.693 189.293 294.84 189.88 295.8C190.467 296.76 191.227 297.24 192.16 297.24L196.88 292.52C198.293 293.827 199.053 295.52 199.16 297.6C196.573 298.933 193.747 299.6 190.68 299.6C188.2 299.6 186.187 299.053 184.64 297.96C183.093 296.867 182.32 295.187 182.32 292.92C182.32 287.987 185.827 282.373 192.84 276.08H184.48L182.92 279.2H180.76L181.88 271H199.76Z" fill="black"/>
<circle cx="104.5" cy="231.5" r="10.5" transform="rotate(-180 104.5 231.5)" fill="black"/>
<circle cx="117.5" cy="214.5" r="10.5" transform="rotate(-180 117.5 214.5)" fill="black"/>
<circle cx="91.5" cy="214.5" r="10.5" transform="rotate(-180 91.5 214.5)" fill="black"/>
<rect x="106" y="224" width="3" height="24" transform="rotate(-180 106 224)" fill="black"/>
<rect x="116" y="213" width="3" height="24" transform="rotate(90 116 213)" fill="black"/>
<path d="M111 196L104.5 205L98 196H111Z" fill="black"/>
<circle cx="103.5" cy="82.5" r="10.5" fill="black"/>
<circle cx="90.5" cy="99.5" r="10.5" fill="black"/>
<circle cx="116.5" cy="99.5" r="10.5" fill="black"/>
<rect x="102" y="90" width="3" height="24" fill="black"/>
<rect x="92" y="101" width="3" height="24" transform="rotate(-90 92 101)" fill="black"/>
<path d="M97 118L103.5 109L110 118H97Z" fill="black"/>
<circle cx="187.558" cy="243.058" r="6.05809" fill="black"/>
<circle cx="180.058" cy="252.867" r="6.05809" fill="black"/>
<circle cx="195.058" cy="252.867" r="6.05809" fill="black"/>
<rect x="186.691" y="247.385" width="1.73088" height="13.8471" fill="black"/>
<rect x="180.922" y="253.732" width="1.73088" height="13.8471" transform="rotate(-90 180.922 253.732)" fill="black"/>
<path d="M183.809 263.54L187.559 258.348L191.309 263.54H183.809Z" fill="black"/>
<circle cx="21.5591" cy="66.481" r="6.05809" transform="rotate(-180 21.5591 66.481)" fill="black"/>
<circle cx="29.0591" cy="56.6724" r="6.05809" transform="rotate(-180 29.0591 56.6724)" fill="black"/>
<circle cx="14.0591" cy="56.6724" r="6.05809" transform="rotate(-180 14.0591 56.6724)" fill="black"/>
<rect x="22.4258" y="62.1543" width="1.73088" height="13.8471" transform="rotate(-180 22.4258 62.1543)" fill="black"/>
<rect x="28.1953" y="55.8066" width="1.73088" height="13.8471" transform="rotate(90 28.1953 55.8066)" fill="black"/>
<path d="M25.3086 45.9988L21.5583 51.1914L17.8081 45.9988H25.3086Z" fill="black"/>
</svg>
