<svg width="209" height="312" viewBox="0 0 209 312" fill="none" xmlns="http://www.w3.org/2000/svg">
<rect y="2" width="209" height="310" rx="19" fill="white"/>
<path d="M10.08 27C10.08 22.28 11.5467 18.3333 14.48 15.16C17.4133 11.9867 21.4 10.4 26.44 10.4L26.4 12.72C23.2267 12.7467 20.64 13.8133 18.64 15.92C16.6667 18 15.4133 20.6933 14.88 24C16.6667 22.3733 18.7333 21.56 21.08 21.56C23.72 21.56 25.76 22.4 27.2 24.08C28.6667 25.76 29.4 27.88 29.4 30.44C29.4 33.0267 28.6 35.2 27 36.96C25.4 38.72 23.1333 39.6 20.2 39.6C16.9467 39.6 14.44 38.4533 12.68 36.16C10.9467 33.84 10.08 30.7867 10.08 27ZM14.6 27.36C14.6 30.24 15.0667 32.64 16 34.56C16.9333 36.4533 18.2533 37.4 19.96 37.4C21.2933 37.4 22.3733 36.7733 23.2 35.52C24.0267 34.24 24.44 32.7733 24.44 31.12C24.44 29.2533 23.9867 27.72 23.08 26.52C22.1733 25.32 20.9067 24.72 19.28 24.72C17.6 24.72 16.04 25.24 14.6 26.28V27.36Z" fill="black"/>
<path d="M198.92 283C198.92 287.72 197.453 291.667 194.52 294.84C191.587 298.013 187.6 299.6 182.56 299.6L182.6 297.28C185.773 297.253 188.36 296.187 190.36 294.08C192.333 292 193.587 289.307 194.12 286C192.333 287.627 190.267 288.44 187.92 288.44C185.28 288.44 183.24 287.6 181.8 285.92C180.333 284.24 179.6 282.12 179.6 279.56C179.6 276.973 180.4 274.8 182 273.04C183.6 271.28 185.867 270.4 188.8 270.4C192.053 270.4 194.56 271.547 196.32 273.84C198.053 276.16 198.92 279.213 198.92 283ZM194.4 282.64C194.4 279.76 193.933 277.36 193 275.44C192.067 273.547 190.747 272.6 189.04 272.6C187.707 272.6 186.627 273.227 185.8 274.48C184.973 275.76 184.56 277.227 184.56 278.88C184.56 280.747 185.013 282.28 185.92 283.48C186.827 284.68 188.093 285.28 189.72 285.28C191.4 285.28 192.96 284.76 194.4 283.72V282.64Z" fill="black"/>
<circle cx="67.5" cy="233.5" r="10.5" transform="rotate(-180 67.5 233.5)" fill="black"/>
<circle cx="80.5" cy="216.5" r="10.5" transform="rotate(-180 80.5 216.5)" fill="black"/>
<circle cx="54.5" cy="216.5" r="10.5" transform="rotate(-180 54.5 216.5)" fill="black"/>
<rect x="69" y="226" width="3" height="24" transform="rotate(-180 69 226)" fill="black"/>
<rect x="79" y="215" width="3" height="24" transform="rotate(90 79 215)" fill="black"/>
<path d="M74 198L67.5 207L61 198H74Z" fill="black"/>
<circle cx="140.5" cy="233.5" r="10.5" transform="rotate(-180 140.5 233.5)" fill="black"/>
<circle cx="153.5" cy="216.5" r="10.5" transform="rotate(-180 153.5 216.5)" fill="black"/>
<circle cx="127.5" cy="216.5" r="10.5" transform="rotate(-180 127.5 216.5)" fill="black"/>
<rect x="142" y="226" width="3" height="24" transform="rotate(-180 142 226)" fill="black"/>
<rect x="152" y="215" width="3" height="24" transform="rotate(90 152 215)" fill="black"/>
<path d="M147 198L140.5 207L134 198H147Z" fill="black"/>
<circle cx="67.5" cy="80.5" r="10.5" fill="black"/>
<circle cx="54.5" cy="97.5" r="10.5" fill="black"/>
<circle cx="80.5" cy="97.5" r="10.5" fill="black"/>
<rect x="66" y="88" width="3" height="24" fill="black"/>
<rect x="56" y="99" width="3" height="24" transform="rotate(-90 56 99)" fill="black"/>
<path d="M61 116L67.5 107L74 116H61Z" fill="black"/>
<circle cx="67.5" cy="144.5" r="10.5" fill="black"/>
<circle cx="54.5" cy="161.5" r="10.5" fill="black"/>
<circle cx="80.5" cy="161.5" r="10.5" fill="black"/>
<rect x="66" y="152" width="3" height="24" fill="black"/>
<rect x="56" y="163" width="3" height="24" transform="rotate(-90 56 163)" fill="black"/>
<path d="M61 180L67.5 171L74 180H61Z" fill="black"/>
<circle cx="140.5" cy="144.5" r="10.5" fill="black"/>
<circle cx="127.5" cy="161.5" r="10.5" fill="black"/>
<circle cx="153.5" cy="161.5" r="10.5" fill="black"/>
<rect x="139" y="152" width="3" height="24" fill="black"/>
<rect x="129" y="163" width="3" height="24" transform="rotate(-90 129 163)" fill="black"/>
<path d="M134 180L140.5 171L147 180H134Z" fill="black"/>
<circle cx="140.5" cy="80.5" r="10.5" fill="black"/>
<circle cx="127.5" cy="97.5" r="10.5" fill="black"/>
<circle cx="153.5" cy="97.5" r="10.5" fill="black"/>
<rect x="139" y="88" width="3" height="24" fill="black"/>
<rect x="129" y="99" width="3" height="24" transform="rotate(-90 129 99)" fill="black"/>
<path d="M134 116L140.5 107L147 116H134Z" fill="black"/>
<circle cx="187.558" cy="243.058" r="6.05809" fill="black"/>
<circle cx="180.058" cy="252.867" r="6.05809" fill="black"/>
<circle cx="195.058" cy="252.867" r="6.05809" fill="black"/>
<rect x="186.691" y="247.385" width="1.73088" height="13.8471" fill="black"/>
<rect x="180.922" y="253.732" width="1.73088" height="13.8471" transform="rotate(-90 180.922 253.732)" fill="black"/>
<path d="M183.809 263.54L187.559 258.348L191.309 263.54H183.809Z" fill="black"/>
<circle cx="21.5591" cy="66.481" r="6.05809" transform="rotate(-180 21.5591 66.481)" fill="black"/>
<circle cx="29.0591" cy="56.6724" r="6.05809" transform="rotate(-180 29.0591 56.6724)" fill="black"/>
<circle cx="14.0591" cy="56.6724" r="6.05809" transform="rotate(-180 14.0591 56.6724)" fill="black"/>
<rect x="22.4258" y="62.1543" width="1.73088" height="13.8471" transform="rotate(-180 22.4258 62.1543)" fill="black"/>
<rect x="28.1953" y="55.8066" width="1.73088" height="13.8471" transform="rotate(90 28.1953 55.8066)" fill="black"/>
<path d="M25.3086 45.9988L21.5583 51.1914L17.8081 45.9988H25.3086Z" fill="black"/>
</svg>
